<?xml version="1.0" encoding="UTF-8" standalone="no"?>
<!-- Created with Inkscape (http://www.inkscape.org/) -->

<svg
   xmlns:dc="http://purl.org/dc/elements/1.1/"
   xmlns:cc="http://creativecommons.org/ns#"
   xmlns:rdf="http://www.w3.org/1999/02/22-rdf-syntax-ns#"
   xmlns:svg="http://www.w3.org/2000/svg"
   xmlns="http://www.w3.org/2000/svg"
   xmlns:sodipodi="http://sodipodi.sourceforge.net/DTD/sodipodi-0.dtd"
   xmlns:inkscape="http://www.inkscape.org/namespaces/inkscape"
   width="210mm"
   height="297mm"
   viewBox="0 0 210 297"
   version="1.1"
   id="svg8"
   inkscape:version="0.92.2 (5c3e80d, 2017-08-06)"
   sodipodi:docname="askisi3.svg">
  <defs
     id="defs2">
    <inkscape:perspective
       sodipodi:type="inkscape:persp3d"
       inkscape:vp_x="0 : 148.5 : 1"
       inkscape:vp_y="0 : 1000 : 0"
       inkscape:vp_z="210 : 148.5 : 1"
       inkscape:persp3d-origin="105 : 99 : 1"
       id="perspective4200" />
  </defs>
  <sodipodi:namedview
     id="base"
     pagecolor="#ffffff"
     bordercolor="#666666"
     borderopacity="1.0"
     inkscape:pageopacity="0.0"
     inkscape:pageshadow="2"
     inkscape:zoom="1.2637004"
     inkscape:cx="480.46042"
     inkscape:cy="128.10155"
     inkscape:document-units="mm"
     inkscape:current-layer="layer1"
     showgrid="false"
     inkscape:window-width="751"
     inkscape:window-height="689"
     inkscape:window-x="61"
     inkscape:window-y="136"
     inkscape:window-maximized="0" />
  <metadata
     id="metadata5">
    <rdf:RDF>
      <cc:Work
         rdf:about="">
        <dc:format>image/svg+xml</dc:format>
        <dc:type
           rdf:resource="http://purl.org/dc/dcmitype/StillImage" />
        <dc:title></dc:title>
      </cc:Work>
    </rdf:RDF>
  </metadata>
  <g
     inkscape:label="Layer 1"
     inkscape:groupmode="layer"
     id="layer1">
    <ellipse
       style="fill:#d45500;stroke-width:0.09599283"
       id="path4125"
       cx="118.36229"
       cy="262.61597"
       rx="1.8192999"
       ry="6.8031864" />
    <ellipse
       style="fill:#d45500;stroke-width:0.09599283"
       id="path4125-8"
       cx="125.07973"
       cy="263.06952"
       rx="1.8192999"
       ry="6.8031869" />
    <ellipse
       style="fill:#d45500;stroke-width:0.09599283"
       id="path4125-3"
       cx="121.86096"
       cy="262.98706"
       rx="1.8192999"
       ry="6.8031869" />
    <ellipse
       style="fill:#d45500;stroke-width:0.09599283"
       id="path4125-2"
       cx="136.13545"
       cy="262.84274"
       rx="1.8192999"
       ry="6.8031869" />
    <ellipse
       style="fill:#d45500;stroke-width:0.09599283"
       id="path4125-8-3"
       cx="142.85287"
       cy="263.2963"
       rx="1.8192999"
       ry="6.8031874" />
    <ellipse
       style="fill:#d45500;stroke-width:0.09599283"
       id="path4125-3-1"
       cx="139.63411"
       cy="263.21384"
       rx="1.8192999"
       ry="6.8031874" />
    <ellipse
       style="fill:none;stroke-width:0.26458332"
       id="path3721"
       cx="30.959364"
       cy="40.229683"
       rx="12.768551"
       ry="19.590105" />
    <ellipse
       style="fill:none;stroke-width:0.26458332"
       id="path3723"
       cx="32.533569"
       cy="40.579502"
       rx="5.5971732"
       ry="7.3462896" />
    <path
       style="fill:#ffff00;stroke-width:0.14397414"
       d="M 73.113113,5.2471633 A 12.593638,11.194345 0 0 0 62.573703,10.331092 19.590105,19.939928 0 0 0 54.922493,8.7456582 19.590105,19.939928 0 0 0 40.425702,15.308047 19.590105,19.939928 0 0 0 26.936604,9.7952074 19.590105,19.939928 0 0 0 7.3460683,29.735075 19.590105,19.939928 0 0 0 26.936604,49.674943 a 19.590105,19.939928 0 0 0 14.496272,-6.562392 19.590105,19.939928 0 0 0 13.489617,5.512842 19.590105,19.939928 0 0 0 9.735322,-2.66547 15.392225,12.593638 0 0 0 10.904244,3.71502 A 15.392225,12.593638 0 0 0 90.953885,37.081395 15.392225,12.593638 0 0 0 80.847524,25.270231 12.593638,11.194345 0 0 0 85.70666,16.441829 12.593638,11.194345 0 0 0 73.113113,5.2471633 Z"
       id="path3729"
       inkscape:connector-curvature="0" />
    <path
       id="path3738"
       d="m 164.06718,6.2966335 a 12.593638,11.194345 0 0 0 -10.53941,5.0839305 19.590105,19.939928 0 0 0 -7.65121,-1.5854405 19.590105,19.939928 0 0 0 -14.49679,6.5623905 19.590105,19.939928 0 0 0 -13.4891,-5.51284 19.590105,19.939928 0 0 0 -19.590539,19.939871 19.590105,19.939928 0 0 0 19.590539,19.939871 19.590105,19.939928 0 0 0 14.49627,-6.56239 19.590105,19.939928 0 0 0 13.48962,5.51284 19.590105,19.939928 0 0 0 9.73532,-2.66547 15.392225,12.593638 0 0 0 10.90424,3.71502 15.392225,12.593638 0 0 0 15.39183,-12.59355 15.392225,12.593638 0 0 0 -10.10636,-11.811164 12.593638,11.194345 0 0 0 4.85914,-8.828408 12.593638,11.194345 0 0 0 -12.59355,-11.1946605 z"
       style="fill:#00ffff;stroke-width:0.14397414"
       inkscape:connector-curvature="0" />
    <g
       id="g3748"
       transform="translate(-32.883393,-67.515901)"
       style="fill:#d40000">
      <ellipse
         ry="18.890459"
         rx="20.989399"
         cy="161.61836"
         cx="77.660774"
         id="path3740"
         style="fill:#d40000;stroke-width:0.26458332" />
      <path
         transform="matrix(1.1425895,0,0,1.1663544,-10.92397,-26.827732)"
         inkscape:transform-center-y="-2.5768341e-006"
         inkscape:transform-center-x="3.0374681e-006"
         d="m 95.501771,184.35688 -12.754918,-9.49292 -1.320093,15.8449 -6.299622,-14.59858 -9.065683,13.06204 1.843652,-15.79254 -14.382132,6.77922 9.492922,-12.75492 -15.8449,-1.32009 14.59857,-6.29963 -13.062039,-9.06568 15.792544,1.84365 -6.779217,-14.38213 12.754918,9.49292 1.320092,-15.8449 6.299622,14.59857 9.065684,-13.06204 -1.843653,15.79255 14.382132,-6.77922 -9.492921,12.75492 15.844901,1.32009 -14.598572,6.29962 13.062042,9.06569 -15.792546,-1.84366 z"
         inkscape:randomized="0"
         inkscape:rounded="0"
         inkscape:flatsided="false"
         sodipodi:arg2="1.1468662"
         sodipodi:arg1="0.88506682"
         sodipodi:r2="14.91577"
         sodipodi:r1="29.831539"
         sodipodi:cy="161.26854"
         sodipodi:cx="76.611313"
         sodipodi:sides="12"
         id="path3744"
         style="fill:#d40000;stroke-width:0.26458332"
         sodipodi:type="star" />
    </g>
    <path
       sodipodi:type="star"
       style="fill:#008080;stroke-width:0.26458332"
       id="path3750"
       sodipodi:sides="12"
       sodipodi:cx="145.1767"
       sodipodi:cy="106.34629"
       sodipodi:r1="42.492893"
       sodipodi:r2="51.196259"
       sodipodi:arg1="0.68861412"
       sodipodi:arg2="0.95041351"
       inkscape:flatsided="false"
       inkscape:rounded="1"
       inkscape:randomized="0"
       d="m 177.98663,133.34915 c -9.51089,11.55624 9.13063,5.95241 -3.04716,14.65328 -12.17779,8.70087 -0.83518,-7.11856 -14.84997,-1.86601 -14.0148,5.25255 4.93116,9.72025 -9.96555,11.16653 -14.89672,1.44629 2.83599,-6.58245 -11.92745,-9.041 -14.76345,-2.45855 -0.58962,10.88357 -14.21369,4.68773 -13.62407,-6.19584 5.74727,-4.28257 -5.80898,-13.79346 -11.55624,-9.51089 -5.9524,9.13063 -14.65327,-3.04715 -8.700878,-12.17779 7.11856,-0.83519 1.86601,-14.84998 -5.25256,-14.01479 -9.720255,4.93116 -11.166537,-9.96555 -1.446283,-14.896712 6.582447,2.83599 9.040997,-11.927449 2.45855,-14.763444 -10.883561,-0.589618 -4.687723,-14.213689 6.195833,-13.624072 4.282573,5.747268 13.793463,-5.808973 9.51089,-11.556242 -9.13064,-5.952406 3.04715,-14.65328 12.17779,-8.700873 0.83518,7.118567 14.84998,1.866013 14.01479,-5.252554 -4.93116,-9.720253 9.96555,-11.166536 14.89671,-1.446282 -2.836,6.582451 11.92745,9.041002 14.76344,2.458551 0.58961,-10.883566 14.21369,-4.687727 13.62407,6.195838 -5.74727,4.282572 5.80897,13.793461 11.55624,9.510889 5.9524,-9.130636 14.65328,3.047153 8.70087,12.177789 -7.11857,0.835182 -1.86601,14.849975 5.25255,14.01479 9.72025,-4.93116 11.16653,9.96555 1.44628,14.89671 -6.58245,-2.835993 -9.041,11.92745 -2.45855,14.76344 10.88356,0.58962 4.68773,14.21369 -6.19584,13.62407 -4.28258,-5.74727 -13.79346,5.80897 z"
       inkscape:transform-center-x="2.2514239e-006"
       transform="matrix(0.7536919,0,0,0.67158919,29.461376,23.031278)" />
    <path
       style="fill:#ffff00;stroke-width:0.26458332"
       d="m 32.9601,143.4142 a 20.639574,20.639574 0 0 0 -11.037105,27.02158 20.639574,20.639574 0 0 0 27.02158,11.0371 20.639574,20.639574 0 0 0 9.726537,-8.48944 20.639574,20.639574 0 0 1 -24.369651,-11.91998 20.639574,20.639574 0 0 1 1.310769,-18.53166 20.639574,20.639574 0 0 0 -2.65213,0.8824 z"
       id="path3754"
       inkscape:connector-curvature="0" />
    <path
       sodipodi:type="star"
       style="fill:#ffff00;stroke-width:0.26458332"
       id="path3759"
       sodipodi:sides="5"
       sodipodi:cx="71.01413"
       sodipodi:cy="144.12721"
       sodipodi:r1="17.155615"
       sodipodi:r2="6.3475776"
       sodipodi:arg1="0.78539816"
       sodipodi:arg2="1.4137167"
       inkscape:flatsided="false"
       inkscape:rounded="-0.08"
       inkscape:randomized="0"
       d="m 83.144981,156.25806 c 0.711974,-0.71197 -12.132359,-5.70391 -11.137871,-5.86142 0.994487,-0.15751 -9.678606,8.55922 -8.781466,9.01634 0.897139,0.45711 1.675637,-13.30117 2.132753,-12.40403 0.457115,0.89714 -11.131157,-6.55995 -11.288668,-5.56547 -0.157511,0.99449 13.16796,-2.51666 12.455986,-1.80468 -0.711975,0.71197 2.799172,-12.6135 1.804685,-12.45599 -0.994487,0.15751 6.462609,11.74579 5.56547,11.28867 -0.89714,-0.45712 12.86114,-1.23561 12.404024,-2.13275 -0.457115,-0.89714 -9.173847,9.77595 -9.016336,8.78146 0.157511,-0.99448 5.149449,11.84985 5.861423,11.13787 z"
       inkscape:transform-center-x="0.092959818"
       inkscape:transform-center-y="-0.087759751"
       transform="matrix(0.78139298,0,0,0.73767156,0.32756317,37.623601)" />
    <path
       transform="matrix(0.78139298,0,0,0.73767156,14.670319,62.81088)"
       inkscape:transform-center-y="-0.087759751"
       inkscape:transform-center-x="0.092959818"
       d="m 83.144981,156.25806 c 0.711974,-0.71197 -12.132359,-5.70391 -11.137871,-5.86142 0.994487,-0.15751 -9.678606,8.55922 -8.781466,9.01634 0.897139,0.45711 1.675637,-13.30117 2.132753,-12.40403 0.457115,0.89714 -11.131157,-6.55995 -11.288668,-5.56547 -0.157511,0.99449 13.16796,-2.51666 12.455986,-1.80468 -0.711975,0.71197 2.799172,-12.6135 1.804685,-12.45599 -0.994487,0.15751 6.462609,11.74579 5.56547,11.28867 -0.89714,-0.45712 12.86114,-1.23561 12.404024,-2.13275 -0.457115,-0.89714 -9.173847,9.77595 -9.016336,8.78146 0.157511,-0.99448 5.149449,11.84985 5.861423,11.13787 z"
       inkscape:randomized="0"
       inkscape:rounded="-0.08"
       inkscape:flatsided="false"
       sodipodi:arg2="1.4137167"
       sodipodi:arg1="0.78539816"
       sodipodi:r2="6.3475776"
       sodipodi:r1="17.155615"
       sodipodi:cy="144.12721"
       sodipodi:cx="71.01413"
       sodipodi:sides="5"
       id="path3761"
       style="fill:#ffff00;stroke-width:0.26458332"
       sodipodi:type="star" />
    <path
       style="fill:#ff0000;stroke-width:0.28372395"
       d="m 167.15868,117.13572 a 7.3462895,10.844522 0 0 0 -4.84053,10.18387 7.3462895,10.844522 0 0 0 0.67592,4.5036 7.3462895,10.844522 0 0 1 7.02025,-7.65173 7.3462895,10.844522 0 0 1 0.73587,0.0548 16.50278,25.322024 26.406447 0 0 -3.59151,-7.09052 z m -53.27169,12.82144 a 24.409543,16.488115 74.041823 0 0 0.54157,8.83047 24.409543,16.488115 74.041823 0 0 21.21059,22.35832 24.409543,16.488115 74.041823 0 0 4.86017,-1.64228 16.50278,25.322024 26.406447 0 0 3.96255,1.56787 16.50278,25.322024 26.406447 0 0 22.87251,-15.96957 7.3462895,10.844522 0 0 1 -3.01842,-3.2644 16.50278,25.322025 26.406447 0 1 -20.20394,11.53779 16.50278,25.322025 26.406447 0 1 -3.96255,-1.56786 24.409544,16.488115 74.041823 0 1 -4.86016,1.64228 24.409544,16.488115 74.041823 0 1 -21.2106,-22.35832 24.409544,16.488115 74.041823 0 1 -0.19172,-1.1343 z"
       id="path3763"
       inkscape:connector-curvature="0" />
    <path
       style="fill:#ff0000;stroke-width:0.26458332"
       d="m 16.791746,193.80232 v 44.86651 c 4.797716,-5.5554 12.78437,-17.26073 14.380001,-21.38268 -0.348673,-0.92903 -0.38998,-1.48564 0.0078,-1.48414 0.397698,0.001 0.350801,0.55791 -0.0078,1.48414 1.673611,4.45929 10.692477,17.80645 15.206824,22.69268 h 0.147796 v -46.17651 z"
       id="rect3775"
       inkscape:connector-curvature="0" />
    <path
       style="fill:#ff0000;stroke-width:0.25861001"
       d="m 79.639224,178.07801 c -10.819313,0 -19.590015,8.37883 -19.59002,18.71514 0,10.33631 9.120553,43.5534 19.939868,43.55341 10.819315,0 19.240169,-33.2171 19.240169,-43.55341 0,-10.33631 -8.770702,-18.71514 -19.590017,-18.71514 z m 0.699698,10.49445 a 8.7455824,8.7455824 0 0 1 8.74572,8.74572 8.7455824,8.7455824 0 0 1 -8.74572,8.7452 8.7455824,8.7455824 0 0 1 -8.74572,-8.7452 8.7455824,8.7455824 0 0 1 8.74572,-8.74572 z"
       id="path3782"
       inkscape:connector-curvature="0" />
    <path
       style="fill:#ff0000;stroke-width:0.47599331"
       d="m 139.7545,165.62919 c -16.54765,0.27685 -23.17096,12.54447 -26.02115,16.76125 -0.39724,-0.01 -0.7129,-0.0207 -0.97358,-0.0331 0.15916,0.14767 0.34149,0.37493 0.54208,0.65112 -0.0635,0.0851 -0.12499,0.16398 -0.18396,0.23668 0.092,-0.0165 0.2178,-0.0315 0.32142,-0.0475 2.6466,3.79554 8.91563,16.48069 25.03,16.91112 16.51769,-0.41707 23.04129,-12.70036 25.86302,-16.96073 0.23917,0.0322 0.47993,0.0645 0.66973,0.0987 -0.1194,-0.1509 -0.2464,-0.32441 -0.38448,-0.5271 0.26631,-0.38186 0.49611,-0.67238 0.69454,-0.84646 -0.29531,0.0174 -0.71253,0.0352 -1.21233,0.0532 -2.8914,-4.55077 -9.24754,-15.76526 -24.34529,-16.2972 z m 25.55762,16.24397 c 0.44007,-0.0259 0.69464,-0.0512 0.61546,-0.0749 -0.16613,-0.18397 -0.36751,-0.14261 -0.61546,0.0749 z m -0.31006,1.37356 c 0.41646,0.52632 0.72777,0.72778 0.96738,0.45785 0.14934,-0.16824 -0.2059,-0.32074 -0.96738,-0.45785 z m -51.88417,-0.002 c -0.76849,0.1376 -1.1267,0.29093 -0.97669,0.45992 0.23677,0.26672 0.5516,0.0641 0.97669,-0.45992 z m -0.35812,-0.8878 c -0.26926,-0.24983 -0.48344,-0.30073 -0.65836,-0.10026 -0.16767,0.0408 0.0961,0.0736 0.65836,0.10026 z m 25.77052,-9.44335 a 11.544169,10.144875 0 0 1 11.544,10.14511 11.544169,10.144875 0 0 1 -11.544,10.1446 11.544169,10.144875 0 0 1 -11.54452,-10.1446 11.544169,10.144875 0 0 1 11.54452,-10.14511 z"
       id="path3788"
       inkscape:connector-curvature="0" />
    <path
       style="fill:#000080;stroke-width:0.19213502"
       d="m 21.823152,231.73458 a 10.605943,12.321437 60.834892 0 0 -1.068359,0.61295 10.605943,12.321437 60.834892 0 0 -4.565933,15.44245 10.605943,12.321437 60.834892 0 0 8.650116,4.44015 l 5.296485,10.42922 -8.624721,5.81089 a 10.605942,12.321437 60.834892 0 0 -10.497914,1.14634 10.605942,12.321437 60.834892 0 0 -5.5907919,15.26603 10.605942,12.321437 60.834892 0 0 15.9280219,3.25674 10.605942,12.321437 60.834892 0 0 5.590803,-15.26601 10.605942,12.321437 60.834892 0 0 -0.929671,-1.33717 l 6.726257,-3.7538 17.106808,33.68395 c -0.05058,0.11835 -0.09926,0.22113 -0.145578,0.30769 2.393978,-0.24115 14.489936,2.03208 17.277389,3.2469 -1.200962,-1.36221 -4.103701,-5.46377 -6.954431,-9.69413 l 0.0059,-0.004 -3.785572,-5.74074 c -1.408395,-2.20182 -2.524678,-4.03885 -2.994911,-4.98546 0.003,0.12908 6.61e-4,0.27501 -0.0054,0.43522 l -13.8304,-20.97394 27.974531,-15.61209 c -0.0949,0.14492 -0.184267,0.27595 -0.267668,0.39021 1.012077,-0.69162 3.158213,-1.96755 5.793066,-3.47383 l 6.97103,-3.89041 -0.0029,-0.005 c 5.191539,-2.84692 10.348848,-5.56187 12.273118,-6.3865 -3.24784,0.17667 -15.465192,-1.73286 -17.449693,-2.72731 -0.01287,0.0923 -0.03393,0.20009 -0.06292,0.32218 l -38.720646,26.08762 -5.145459,-7.80309 a 10.605943,12.321437 60.834892 0 0 1.666595,-0.89058 10.605943,12.321437 60.834892 0 0 4.565932,-15.44246 10.605943,12.321437 60.834892 0 0 -15.18328,-2.89171 z m 52.879802,0.61806 c 0.0438,-0.31452 -0.0092,-0.44908 -0.181882,-0.35423 -0.172581,0.0952 -0.09453,0.21564 0.181882,0.35423 z m -7.584632,16.48322 c -0.496343,0.33918 -0.721858,0.53853 -0.601466,0.55734 0.120427,0.0188 0.328477,-0.18316 0.601466,-0.55734 z m -13.87098,35.7609 c -0.0092,-0.42285 -0.06885,-0.67105 -0.188157,-0.69321 -0.1192,-0.0224 -0.04244,0.22898 0.188157,0.69321 z M 23.322351,235.48745 a 6.7170968,7.8035767 60.834892 0 1 9.816772,1.72414 6.7170968,7.8035767 60.834892 0 1 -2.892083,9.78 6.7170968,7.8035767 60.834892 0 1 -10.292259,-1.44323 6.7170968,7.8035767 60.834892 0 1 2.89156,-9.7801 6.7170968,7.8035767 60.834892 0 1 0.476029,-0.28078 z m 9.8747,24.71733 a 2.9460954,3.4226213 60.834892 0 1 4.424472,0.90465 2.9460954,3.4226213 60.834892 0 1 -1.552999,4.2406 2.9460954,3.4226213 60.834892 0 1 -4.424491,-0.90467 2.9460954,3.4226213 60.834892 0 1 1.553018,-4.24058 z m -20.226802,12.63784 a 6.7170968,7.8035767 60.834892 0 1 10.087631,2.06259 6.7170968,7.8035767 60.834892 0 1 -3.540619,9.66868 6.7170968,7.8035767 60.834892 0 1 -10.0878019,-2.0629 6.7170968,7.8035767 60.834892 0 1 3.5407899,-9.66837 z m 79.182558,-37.76238 c 0.4525,-0.0246 0.73124,-0.0899 0.78356,-0.20365 0.0523,-0.11371 -0.23404,-0.0318 -0.78356,0.20365 z m -42.806846,66.7822 c -0.06611,0.0426 -0.07881,0.0983 -0.03141,0.16864 0.09501,0.1409 0.226133,0.0378 0.383766,-0.25689 -0.166468,0.0169 -0.286267,0.0458 -0.35238,0.0882 z m 17.63082,3.1581 c 0.342953,0.38906 0.547257,0.55536 0.571754,0.43686 0.02439,-0.1184 -0.183443,-0.26755 -0.571754,-0.43686 z"
       id="path3856"
       inkscape:connector-curvature="0" />
    <circle
       style="fill:#803300;stroke-width:0.26458332"
       id="path3875"
       cx="130.66476"
       cy="236.177"
       r="29.035336" />
    <path
       style="fill:#e3dbdb;stroke-width:0.14058109"
       d="m 122.56585,216.89171 a 11.475715,10.010096 45.020177 0 0 -2.09645,0.18759 11.475715,10.010096 45.020177 0 0 -6.78483,12.58588 11.475715,10.010096 45.020177 0 0 13.63218,8.57383 11.475715,10.010096 45.020177 0 0 3.52477,-1.49086 9.8710584,11.637356 47.987051 0 0 3.19692,1.49038 9.8710584,11.637356 47.987051 0 0 14.22254,-7.97032 9.8710584,11.637356 47.987051 0 0 -5.87658,-12.86024 9.8710584,11.637356 47.987051 0 0 -11.15936,3.44804 11.475715,10.010096 45.020177 0 0 -8.65919,-3.9643 z"
       id="path3877"
       inkscape:connector-curvature="0" />
    <path
       style="fill:#1a1a1a;stroke-width:0.038325"
       d="m 124.37079,223.10855 a 3.6731448,4.1978794 0 0 0 -3.67316,4.19768 3.6731448,4.1978794 0 0 0 3.67316,4.19767 3.6731448,4.1978794 0 0 0 3.67264,-4.19767 3.6731448,4.1978794 0 0 0 -3.67264,-4.19768 z m -0.632,2.05207 a 1.4656031,1.570289 0 0 1 1.46554,1.57045 1.4656031,1.570289 0 0 1 -1.46554,1.57044 1.4656031,1.570289 0 0 1 -1.46555,-1.57044 1.4656031,1.570289 0 0 1 1.46555,-1.57045 z"
       id="ellipse3886"
       inkscape:connector-curvature="0" />
    <path
       inkscape:connector-curvature="0"
       id="path3907"
       d="m 136.9331,222.05021 a 3.6731448,4.1978794 0 0 0 -3.67316,4.19768 3.6731448,4.1978794 0 0 0 3.67316,4.19767 3.6731448,4.1978794 0 0 0 3.67264,-4.19767 3.6731448,4.1978794 0 0 0 -3.67264,-4.19768 z m -0.632,2.05207 a 1.4656031,1.570289 0 0 1 1.46554,1.57045 1.4656031,1.570289 0 0 1 -1.46554,1.57044 1.4656031,1.570289 0 0 1 -1.46555,-1.57044 1.4656031,1.570289 0 0 1 1.46555,-1.57045 z"
       style="fill:#1a1a1a;stroke-width:0.038325" />
    <path
       style="fill:#803300;stroke-width:0.26458332"
       id="path3919"
       sodipodi:type="arc"
       sodipodi:cx="141.32602"
       sodipodi:cy="208.83043"
       sodipodi:rx="0.62811565"
       sodipodi:ry="0.20937188"
       sodipodi:start="0"
       sodipodi:end="5.2834084"
       sodipodi:open="true"
       d="m 141.95413,208.83043 a 0.62811565,0.20937188 0 0 1 -0.47275,0.20286 0.62811565,0.20937188 0 0 1 -0.70662,-0.1025 0.62811565,0.20937188 0 0 1 0.12319,-0.25358 0.62811565,0.20937188 0 0 1 0.76756,-0.0229" />
    <path
       style="fill:#ffe6d5;stroke-width:0.07607976"
       d="m 126.18893,238.99285 c -0.16021,0.006 1.34399,1.04263 1.21415,1.14553 -0.56493,0.44771 -5.82974,2.57652 -6.42164,2.9804 -0.13603,0.0929 1.64026,0.16783 1.57484,0.32796 -0.28465,0.6968 -3.87129,5.42059 -4.19931,6.09416 -0.0754,0.1548 1.49707,-0.75203 1.51359,-0.57759 0.0719,0.75917 -0.87548,6.81233 -0.85176,7.57512 0.006,0.17529 0.95291,-1.47037 1.04695,-1.32832 0.40918,0.61812 2.35481,6.37867 2.72393,7.02628 0.0848,0.14884 0.15324,-1.79469 0.29959,-1.72312 0.63683,0.31146 4.95427,4.23581 5.56988,4.59471 0.14148,0.0825 -0.68733,-1.63819 -0.52788,-1.65627 0.27232,-0.0309 1.30389,0.11355 2.48285,0.29485 -0.003,0.0128 -0.006,0.0259 -0.009,0.0388 0.0456,-0.007 0.0866,-0.0131 0.13196,-0.02 0.0453,0.007 0.0863,0.013 0.13198,0.02 -0.003,-0.0128 -0.006,-0.0258 -0.009,-0.0388 1.17896,-0.18128 2.21054,-0.32572 2.48285,-0.29485 0.15946,0.0181 -0.66935,1.73879 -0.52788,1.65627 0.61561,-0.3589 4.93305,-4.28325 5.56988,-4.59471 0.14636,-0.0716 0.21477,1.87195 0.2996,1.72312 0.36911,-0.64762 2.31474,-6.40816 2.72393,-7.02628 0.094,-0.14205 1.0415,1.50361 1.04694,1.32832 0.0237,-0.7628 -0.92365,-6.81594 -0.85176,-7.57512 0.0165,-0.17445 1.58899,0.73239 1.51361,0.57759 -0.32803,-0.67358 -3.91467,-5.39736 -4.19933,-6.09416 -0.0655,-0.16013 1.71087,-0.23514 1.57484,-0.32796 -0.59188,-0.40388 -5.85671,-2.53269 -6.42164,-2.9804 -0.12983,-0.10287 1.37437,-1.13957 1.21415,-1.14553 -0.43087,-0.016 -2.70693,0.37341 -4.54792,0.65499 -1.841,-0.28158 -4.11705,-0.67104 -4.54793,-0.65499 z"
       id="path3951"
       inkscape:connector-curvature="0" />
    <path
       style="fill:#a02c2c;stroke-width:0.12663364"
       d="m 104.86807,234.29295 c -4.949409,1.57254 -7.653109,6.82332 -6.038859,11.72821 1.614249,4.90487 13.514819,17.23621 18.464229,15.66369 0,0 -0.35184,3.80867 0,0 0,0 1.58994,0.574 0,0 -2.76636,-1.00937 -8.26859,-9.28006 -8.26545,-16.73638 0.003,-4.52094 0.77595,-7.18973 2.17486,-9.1793 -1.97497,-0.78772 -4.15581,-2.16853 -6.33478,-1.47621 z"
       id="path3782-8"
       inkscape:connector-curvature="0"
       sodipodi:nodetypes="sscccccss" />
    <path
       sodipodi:nodetypes="sscccccss"
       inkscape:connector-curvature="0"
       id="path4042"
       d="m 156.00464,233.9488 c 4.94731,1.57904 7.6441,6.83337 6.02341,11.73614 -1.6207,4.90273 -13.5375,17.2184 -18.48484,15.63937 0,0 0.34683,3.80913 0,0 0,0 -1.59069,0.57191 0,0 2.76768,-1.00572 8.28081,-9.26916 8.28748,-16.72549 0.003,-4.52095 -0.7665,-7.19074 -2.16277,-9.18215 1.976,-0.78512 4.15865,-2.16306 6.3367,-1.46787 z"
       style="fill:#a02c2c;stroke-width:0.12663364" />
    <path
       style="fill:#333333;stroke-width:0.21390636"
       d="m 117.61546,205.3505 c -0.10618,0.0811 1.80698,3.05961 1.5696,3.18741 -0.83283,0.44825 -7.95619,0.41584 -8.81601,0.72242 -0.25299,0.0902 2.55542,1.26981 2.38631,1.57149 -0.57476,1.02529 -6.75432,6.44631 -7.39875,7.36957 -0.18961,0.27165 2.62738,-0.85516 2.57951,-0.46458 -0.0393,0.32094 -0.2807,1.12075 -0.62419,2.15852 0.1507,-0.012 0.30222,-0.0186 0.45497,-0.0186 h 0.0581 a 11.290021,13.713858 0 0 1 10.46363,-8.58395 11.290021,13.713858 0 0 1 10.47916,8.64028 c 0.86385,0.12049 1.68953,0.43701 2.45724,0.92295 -0.0479,-2.64663 -0.0937,-5.08514 -0.18171,-5.66269 -0.059,-0.38709 -0.82963,3.90913 -1.02681,3.6504 -0.67015,-0.87934 -4.21341,-10.33375 -4.81687,-11.31972 -0.17755,-0.29009 0.55897,4.02026 0.30365,3.94705 -0.86775,-0.24889 -7.02612,-5.72627 -7.87094,-6.11849 -0.008,-0.004 -0.0135,-0.005 -0.0169,-0.002 z m 13.60958,15.50551 c 0.76771,-0.48594 1.59339,-0.80246 2.45724,-0.92295 a 11.290021,13.713857 0 0 1 10.47917,-8.64028 11.290021,13.713857 0 0 1 10.46363,8.58395 h 0.0581 c 0.15275,0 0.30427,0.007 0.45497,0.0191 -0.34349,-1.03777 -0.58486,-1.83758 -0.62419,-2.15852 -0.0478,-0.39061 2.76913,0.7362 2.57952,0.46455 -0.64444,-0.92326 -6.82399,-6.34426 -7.39875,-7.36957 -0.16911,-0.30165 2.63929,-1.48127 2.38631,-1.57147 -0.85982,-0.30659 -7.98318,-0.27416 -8.81601,-0.72244 -0.23738,-0.12777 1.67578,-3.10629 1.5696,-3.18741 -0.003,-0.003 -0.009,-0.002 -0.0169,0.002 -0.84482,0.39222 -7.0032,5.8696 -7.87094,6.11849 -0.25532,0.0732 0.4812,-4.23714 0.30365,-3.94705 -0.60346,0.98597 -4.14672,10.44038 -4.81687,11.31972 -0.19718,0.25873 -0.96785,-4.03749 -1.02681,-3.6504 -0.088,0.57758 -0.1338,3.01606 -0.18172,5.66269 z"
       id="path4169"
       inkscape:connector-curvature="0" />
    <path
       style="fill:#ff6600;stroke-width:0.07838729"
       d="m 129.15372,231.30552 c -0.69839,-0.006 -1.21729,0.13412 -1.32037,0.47757 -0.009,0.0295 -0.0157,0.0673 -0.0214,0.10949 -0.0627,0.0572 0,0 0,0 -0.3665,1.22116 2.29635,13.07855 2.92114,13.2282 0.0985,0.0236 -0.20708,0.44909 0,0 1.02658,-1.90555 3.23358,-10.35465 3.00525,-11.56646 -0.18564,-0.98526 -2.79975,-2.23291 -4.58455,-2.2488 z"
       id="path4234"
       inkscape:connector-curvature="0"
       sodipodi:nodetypes="ccccccccc" />
    <path
       style="fill:#800000;stroke:#000000;stroke-width:0.26038054px;stroke-linecap:butt;stroke-linejoin:miter;stroke-opacity:1"
       d="m 112.17083,232.37496 c -10.35665,5.46848 -10.58179,6.03418 -10.58179,6.03418 l 8.55547,-2.63997 -6.52917,4.33708 7.20462,-2.82854 -1.35088,3.2057 5.40347,-3.58281 -0.90059,-0.18872"
       id="path4275"
       inkscape:connector-curvature="0" />
    <path
       style="fill:#550000;stroke:#000000;stroke-width:0.24336764px;stroke-linecap:butt;stroke-linejoin:miter;stroke-opacity:1"
       d="m 150.06595,231.51563 c 9.25254,8.76595 9.43607,9.37674 9.43607,9.37674 l -7.71742,-5.4757 5.79803,6.36297 -6.47502,-5.1805 1.10859,3.48747 -4.79864,-5.25981 0.83076,0.13756"
       id="path4275-1"
       inkscape:connector-curvature="0" />
  </g>
</svg>
