<?xml version="1.0" encoding="UTF-8" standalone="no"?>
<!-- Created with Inkscape (http://www.inkscape.org/) -->

<svg
   xmlns:dc="http://purl.org/dc/elements/1.1/"
   xmlns:cc="http://creativecommons.org/ns#"
   xmlns:rdf="http://www.w3.org/1999/02/22-rdf-syntax-ns#"
   xmlns:svg="http://www.w3.org/2000/svg"
   xmlns="http://www.w3.org/2000/svg"
   xmlns:sodipodi="http://sodipodi.sourceforge.net/DTD/sodipodi-0.dtd"
   xmlns:inkscape="http://www.inkscape.org/namespaces/inkscape"
   width="210mm"
   height="297mm"
   viewBox="0 0 210 297"
   version="1.1"
   id="svg8"
   inkscape:version="0.92.2 (5c3e80d, 2017-08-06)"
   sodipodi:docname="inkscape.svg">
  <defs
     id="defs2">
    <inkscape:perspective
       sodipodi:type="inkscape:persp3d"
       inkscape:vp_x="0 : 148.5 : 1"
       inkscape:vp_y="0 : 1000 : 0"
       inkscape:vp_z="210 : 148.5 : 1"
       inkscape:persp3d-origin="105 : 99 : 1"
       id="perspective4200" />
  </defs>
  <sodipodi:namedview
     id="base"
     pagecolor="#ffffff"
     bordercolor="#666666"
     borderopacity="1.0"
     inkscape:pageopacity="0.0"
     inkscape:pageshadow="2"
     inkscape:zoom="1.2637004"
     inkscape:cx="480.46042"
     inkscape:cy="-225.87785"
     inkscape:document-units="mm"
     inkscape:current-layer="layer1"
     showgrid="false"
     inkscape:window-width="1920"
     inkscape:window-height="1018"
     inkscape:window-x="-8"
     inkscape:window-y="-8"
     inkscape:window-maximized="1" />
  <metadata
     id="metadata5">
    <rdf:RDF>
      <cc:Work
         rdf:about="">
        <dc:format>image/svg+xml</dc:format>
        <dc:type
           rdf:resource="http://purl.org/dc/dcmitype/StillImage" />
        <dc:title></dc:title>
      </cc:Work>
    </rdf:RDF>
  </metadata>
  <g
     inkscape:label="Layer 1"
     inkscape:groupmode="layer"
     id="layer1">
    <ellipse
       style="fill:none;stroke-width:0.26458332"
       id="path3721"
       cx="30.959364"
       cy="40.229683"
       rx="12.768551"
       ry="19.590105" />
    <ellipse
       style="fill:none;stroke-width:0.26458332"
       id="path3723"
       cx="32.533569"
       cy="40.579502"
       rx="5.5971732"
       ry="7.3462896" />
    <path
       style="fill:#ffff00;stroke-width:0.14397414"
       d="M 73.113113,5.2471633 A 12.593638,11.194345 0 0 0 62.573703,10.331092 19.590105,19.939928 0 0 0 54.922493,8.7456582 19.590105,19.939928 0 0 0 40.425702,15.308047 19.590105,19.939928 0 0 0 26.936604,9.7952074 19.590105,19.939928 0 0 0 7.3460683,29.735075 19.590105,19.939928 0 0 0 26.936604,49.674943 a 19.590105,19.939928 0 0 0 14.496272,-6.562392 19.590105,19.939928 0 0 0 13.489617,5.512842 19.590105,19.939928 0 0 0 9.735322,-2.66547 15.392225,12.593638 0 0 0 10.904244,3.71502 A 15.392225,12.593638 0 0 0 90.953885,37.081395 15.392225,12.593638 0 0 0 80.847524,25.270231 12.593638,11.194345 0 0 0 85.70666,16.441829 12.593638,11.194345 0 0 0 73.113113,5.2471633 Z"
       id="path3729"
       inkscape:connector-curvature="0" />
    <path
       id="path3738"
       d="m 164.06718,6.2966335 a 12.593638,11.194345 0 0 0 -10.53941,5.0839305 19.590105,19.939928 0 0 0 -7.65121,-1.5854405 19.590105,19.939928 0 0 0 -14.49679,6.5623905 19.590105,19.939928 0 0 0 -13.4891,-5.51284 19.590105,19.939928 0 0 0 -19.590539,19.939871 19.590105,19.939928 0 0 0 19.590539,19.939871 19.590105,19.939928 0 0 0 14.49627,-6.56239 19.590105,19.939928 0 0 0 13.48962,5.51284 19.590105,19.939928 0 0 0 9.73532,-2.66547 15.392225,12.593638 0 0 0 10.90424,3.71502 15.392225,12.593638 0 0 0 15.39183,-12.59355 15.392225,12.593638 0 0 0 -10.10636,-11.811164 12.593638,11.194345 0 0 0 4.85914,-8.828408 12.593638,11.194345 0 0 0 -12.59355,-11.1946605 z"
       style="fill:#00ffff;stroke-width:0.14397414"
       inkscape:connector-curvature="0" />
    <g
       id="g3748"
       transform="translate(-32.883393,-67.515901)"
       style="fill:#d40000">
      <ellipse
         ry="18.890459"
         rx="20.989399"
         cy="161.61836"
         cx="77.660774"
         id="path3740"
         style="fill:#d40000;stroke-width:0.26458332" />
      <path
         transform="matrix(1.1425895,0,0,1.1663544,-10.92397,-26.827732)"
         inkscape:transform-center-y="-2.5768341e-006"
         inkscape:transform-center-x="3.0374681e-006"
         d="m 95.501771,184.35688 -12.754918,-9.49292 -1.320093,15.8449 -6.299622,-14.59858 -9.065683,13.06204 1.843652,-15.79254 -14.382132,6.77922 9.492922,-12.75492 -15.8449,-1.32009 14.59857,-6.29963 -13.062039,-9.06568 15.792544,1.84365 -6.779217,-14.38213 12.754918,9.49292 1.320092,-15.8449 6.299622,14.59857 9.065684,-13.06204 -1.843653,15.79255 14.382132,-6.77922 -9.492921,12.75492 15.844901,1.32009 -14.598572,6.29962 13.062042,9.06569 -15.792546,-1.84366 z"
         inkscape:randomized="0"
         inkscape:rounded="0"
         inkscape:flatsided="false"
         sodipodi:arg2="1.1468662"
         sodipodi:arg1="0.88506682"
         sodipodi:r2="14.91577"
         sodipodi:r1="29.831539"
         sodipodi:cy="161.26854"
         sodipodi:cx="76.611313"
         sodipodi:sides="12"
         id="path3744"
         style="fill:#d40000;stroke-width:0.26458332"
         sodipodi:type="star" />
    </g>
    <path
       sodipodi:type="star"
       style="fill:#008080;stroke-width:0.26458332"
       id="path3750"
       sodipodi:sides="12"
       sodipodi:cx="145.1767"
       sodipodi:cy="106.34629"
       sodipodi:r1="42.492893"
       sodipodi:r2="51.196259"
       sodipodi:arg1="0.68861412"
       sodipodi:arg2="0.95041351"
       inkscape:flatsided="false"
       inkscape:rounded="1"
       inkscape:randomized="0"
       d="m 177.98663,133.34915 c -9.51089,11.55624 9.13063,5.95241 -3.04716,14.65328 -12.17779,8.70087 -0.83518,-7.11856 -14.84997,-1.86601 -14.0148,5.25255 4.93116,9.72025 -9.96555,11.16653 -14.89672,1.44629 2.83599,-6.58245 -11.92745,-9.041 -14.76345,-2.45855 -0.58962,10.88357 -14.21369,4.68773 -13.62407,-6.19584 5.74727,-4.28257 -5.80898,-13.79346 -11.55624,-9.51089 -5.9524,9.13063 -14.65327,-3.04715 -8.700878,-12.17779 7.11856,-0.83519 1.86601,-14.84998 -5.25256,-14.01479 -9.720255,4.93116 -11.166537,-9.96555 -1.446283,-14.896712 6.582447,2.83599 9.040997,-11.927449 2.45855,-14.763444 -10.883561,-0.589618 -4.687723,-14.213689 6.195833,-13.624072 4.282573,5.747268 13.793463,-5.808973 9.51089,-11.556242 -9.13064,-5.952406 3.04715,-14.65328 12.17779,-8.700873 0.83518,7.118567 14.84998,1.866013 14.01479,-5.252554 -4.93116,-9.720253 9.96555,-11.166536 14.89671,-1.446282 -2.836,6.582451 11.92745,9.041002 14.76344,2.458551 0.58961,-10.883566 14.21369,-4.687727 13.62407,6.195838 -5.74727,4.282572 5.80897,13.793461 11.55624,9.510889 5.9524,-9.130636 14.65328,3.047153 8.70087,12.177789 -7.11857,0.835182 -1.86601,14.849975 5.25255,14.01479 9.72025,-4.93116 11.16653,9.96555 1.44628,14.89671 -6.58245,-2.835993 -9.041,11.92745 -2.45855,14.76344 10.88356,0.58962 4.68773,14.21369 -6.19584,13.62407 -4.28258,-5.74727 -13.79346,5.80897 z"
       inkscape:transform-center-x="2.2514239e-006"
       transform="matrix(0.7536919,0,0,0.67158919,29.461376,23.031278)" />
    <path
       style="fill:#ffff00;stroke-width:0.26458332"
       d="m 32.9601,143.4142 a 20.639574,20.639574 0 0 0 -11.037105,27.02158 20.639574,20.639574 0 0 0 27.02158,11.0371 20.639574,20.639574 0 0 0 9.726537,-8.48944 20.639574,20.639574 0 0 1 -24.369651,-11.91998 20.639574,20.639574 0 0 1 1.310769,-18.53166 20.639574,20.639574 0 0 0 -2.65213,0.8824 z"
       id="path3754"
       inkscape:connector-curvature="0" />
    <path
       sodipodi:type="star"
       style="fill:#ffff00;stroke-width:0.26458332"
       id="path3759"
       sodipodi:sides="5"
       sodipodi:cx="71.01413"
       sodipodi:cy="144.12721"
       sodipodi:r1="17.155615"
       sodipodi:r2="6.3475776"
       sodipodi:arg1="0.78539816"
       sodipodi:arg2="1.4137167"
       inkscape:flatsided="false"
       inkscape:rounded="-0.08"
       inkscape:randomized="0"
       d="m 83.144981,156.25806 c 0.711974,-0.71197 -12.132359,-5.70391 -11.137871,-5.86142 0.994487,-0.15751 -9.678606,8.55922 -8.781466,9.01634 0.897139,0.45711 1.675637,-13.30117 2.132753,-12.40403 0.457115,0.89714 -11.131157,-6.55995 -11.288668,-5.56547 -0.157511,0.99449 13.16796,-2.51666 12.455986,-1.80468 -0.711975,0.71197 2.799172,-12.6135 1.804685,-12.45599 -0.994487,0.15751 6.462609,11.74579 5.56547,11.28867 -0.89714,-0.45712 12.86114,-1.23561 12.404024,-2.13275 -0.457115,-0.89714 -9.173847,9.77595 -9.016336,8.78146 0.157511,-0.99448 5.149449,11.84985 5.861423,11.13787 z"
       inkscape:transform-center-x="0.092959818"
       inkscape:transform-center-y="-0.087759751"
       transform="matrix(0.78139298,0,0,0.73767156,0.32756317,37.623601)" />
    <path
       transform="matrix(0.78139298,0,0,0.73767156,14.670319,62.81088)"
       inkscape:transform-center-y="-0.087759751"
       inkscape:transform-center-x="0.092959818"
       d="m 83.144981,156.25806 c 0.711974,-0.71197 -12.132359,-5.70391 -11.137871,-5.86142 0.994487,-0.15751 -9.678606,8.55922 -8.781466,9.01634 0.897139,0.45711 1.675637,-13.30117 2.132753,-12.40403 0.457115,0.89714 -11.131157,-6.55995 -11.288668,-5.56547 -0.157511,0.99449 13.16796,-2.51666 12.455986,-1.80468 -0.711975,0.71197 2.799172,-12.6135 1.804685,-12.45599 -0.994487,0.15751 6.462609,11.74579 5.56547,11.28867 -0.89714,-0.45712 12.86114,-1.23561 12.404024,-2.13275 -0.457115,-0.89714 -9.173847,9.77595 -9.016336,8.78146 0.157511,-0.99448 5.149449,11.84985 5.861423,11.13787 z"
       inkscape:randomized="0"
       inkscape:rounded="-0.08"
       inkscape:flatsided="false"
       sodipodi:arg2="1.4137167"
       sodipodi:arg1="0.78539816"
       sodipodi:r2="6.3475776"
       sodipodi:r1="17.155615"
       sodipodi:cy="144.12721"
       sodipodi:cx="71.01413"
       sodipodi:sides="5"
       id="path3761"
       style="fill:#ffff00;stroke-width:0.26458332"
       sodipodi:type="star" />
    <path
       style="fill:#ff0000;stroke-width:0.28372395"
       d="m 167.15868,117.13572 a 7.3462895,10.844522 0 0 0 -4.84053,10.18387 7.3462895,10.844522 0 0 0 0.67592,4.5036 7.3462895,10.844522 0 0 1 7.02025,-7.65173 7.3462895,10.844522 0 0 1 0.73587,0.0548 16.50278,25.322024 26.406447 0 0 -3.59151,-7.09052 z m -53.27169,12.82144 a 24.409543,16.488115 74.041823 0 0 0.54157,8.83047 24.409543,16.488115 74.041823 0 0 21.21059,22.35832 24.409543,16.488115 74.041823 0 0 4.86017,-1.64228 16.50278,25.322024 26.406447 0 0 3.96255,1.56787 16.50278,25.322024 26.406447 0 0 22.87251,-15.96957 7.3462895,10.844522 0 0 1 -3.01842,-3.2644 16.50278,25.322025 26.406447 0 1 -20.20394,11.53779 16.50278,25.322025 26.406447 0 1 -3.96255,-1.56786 24.409544,16.488115 74.041823 0 1 -4.86016,1.64228 24.409544,16.488115 74.041823 0 1 -21.2106,-22.35832 24.409544,16.488115 74.041823 0 1 -0.19172,-1.1343 z"
       id="path3763"
       inkscape:connector-curvature="0" />
    <path
       style="fill:#ff0000;stroke-width:0.26458332"
       d="m 16.791746,193.80232 v 44.86651 c 4.797716,-5.5554 12.78437,-17.26073 14.380001,-21.38268 -0.348673,-0.92903 -0.38998,-1.48564 0.0078,-1.48414 0.397698,0.001 0.350801,0.55791 -0.0078,1.48414 1.673611,4.45929 10.692477,17.80645 15.206824,22.69268 h 0.147796 v -46.17651 z"
       id="rect3775"
       inkscape:connector-curvature="0" />
    <path
       style="fill:#ff0000;stroke-width:0.25861001"
       d="m 79.639224,178.07801 c -10.819313,0 -19.590015,8.37883 -19.59002,18.71514 0,10.33631 9.120553,43.5534 19.939868,43.55341 10.819315,0 19.240169,-33.2171 19.240169,-43.55341 0,-10.33631 -8.770702,-18.71514 -19.590017,-18.71514 z m 0.699698,10.49445 a 8.7455824,8.7455824 0 0 1 8.74572,8.74572 8.7455824,8.7455824 0 0 1 -8.74572,8.7452 8.7455824,8.7455824 0 0 1 -8.74572,-8.7452 8.7455824,8.7455824 0 0 1 8.74572,-8.74572 z"
       id="path3782"
       inkscape:connector-curvature="0" />
    <path
       style="fill:#ff0000;stroke-width:0.47599331"
       d="m 139.7545,165.62919 c -16.54765,0.27685 -23.17096,12.54447 -26.02115,16.76125 -0.39724,-0.01 -0.7129,-0.0207 -0.97358,-0.0331 0.15916,0.14767 0.34149,0.37493 0.54208,0.65112 -0.0635,0.0851 -0.12499,0.16398 -0.18396,0.23668 0.092,-0.0165 0.2178,-0.0315 0.32142,-0.0475 2.6466,3.79554 8.91563,16.48069 25.03,16.91112 16.51769,-0.41707 23.04129,-12.70036 25.86302,-16.96073 0.23917,0.0322 0.47993,0.0645 0.66973,0.0987 -0.1194,-0.1509 -0.2464,-0.32441 -0.38448,-0.5271 0.26631,-0.38186 0.49611,-0.67238 0.69454,-0.84646 -0.29531,0.0174 -0.71253,0.0352 -1.21233,0.0532 -2.8914,-4.55077 -9.24754,-15.76526 -24.34529,-16.2972 z m 25.55762,16.24397 c 0.44007,-0.0259 0.69464,-0.0512 0.61546,-0.0749 -0.16613,-0.18397 -0.36751,-0.14261 -0.61546,0.0749 z m -0.31006,1.37356 c 0.41646,0.52632 0.72777,0.72778 0.96738,0.45785 0.14934,-0.16824 -0.2059,-0.32074 -0.96738,-0.45785 z m -51.88417,-0.002 c -0.76849,0.1376 -1.1267,0.29093 -0.97669,0.45992 0.23677,0.26672 0.5516,0.0641 0.97669,-0.45992 z m -0.35812,-0.8878 c -0.26926,-0.24983 -0.48344,-0.30073 -0.65836,-0.10026 -0.16767,0.0408 0.0961,0.0736 0.65836,0.10026 z m 25.77052,-9.44335 a 11.544169,10.144875 0 0 1 11.544,10.14511 11.544169,10.144875 0 0 1 -11.544,10.1446 11.544169,10.144875 0 0 1 -11.54452,-10.1446 11.544169,10.144875 0 0 1 11.54452,-10.14511 z"
       id="path3788"
       inkscape:connector-curvature="0" />
    <path
       style="fill:#000080;stroke-width:0.19213502"
       d="m 21.823152,231.73458 a 10.605943,12.321437 60.834892 0 0 -1.068359,0.61295 10.605943,12.321437 60.834892 0 0 -4.565933,15.44245 10.605943,12.321437 60.834892 0 0 8.650116,4.44015 l 5.296485,10.42922 -8.624721,5.81089 a 10.605942,12.321437 60.834892 0 0 -10.497914,1.14634 10.605942,12.321437 60.834892 0 0 -5.5907919,15.26603 10.605942,12.321437 60.834892 0 0 15.9280219,3.25674 10.605942,12.321437 60.834892 0 0 5.590803,-15.26601 10.605942,12.321437 60.834892 0 0 -0.929671,-1.33717 l 6.726257,-3.7538 17.106808,33.68395 c -0.05058,0.11835 -0.09926,0.22113 -0.145578,0.30769 2.393978,-0.24115 14.489936,2.03208 17.277389,3.2469 -1.200962,-1.36221 -4.103701,-5.46377 -6.954431,-9.69413 l 0.0059,-0.004 -3.785572,-5.74074 c -1.408395,-2.20182 -2.524678,-4.03885 -2.994911,-4.98546 0.003,0.12908 6.61e-4,0.27501 -0.0054,0.43522 l -13.8304,-20.97394 27.974531,-15.61209 c -0.0949,0.14492 -0.184267,0.27595 -0.267668,0.39021 1.012077,-0.69162 3.158213,-1.96755 5.793066,-3.47383 l 6.97103,-3.89041 -0.0029,-0.005 c 5.191539,-2.84692 10.348848,-5.56187 12.273118,-6.3865 -3.24784,0.17667 -15.465192,-1.73286 -17.449693,-2.72731 -0.01287,0.0923 -0.03393,0.20009 -0.06292,0.32218 l -38.720646,26.08762 -5.145459,-7.80309 a 10.605943,12.321437 60.834892 0 0 1.666595,-0.89058 10.605943,12.321437 60.834892 0 0 4.565932,-15.44246 10.605943,12.321437 60.834892 0 0 -15.18328,-2.89171 z m 52.879802,0.61806 c 0.0438,-0.31452 -0.0092,-0.44908 -0.181882,-0.35423 -0.172581,0.0952 -0.09453,0.21564 0.181882,0.35423 z m -7.584632,16.48322 c -0.496343,0.33918 -0.721858,0.53853 -0.601466,0.55734 0.120427,0.0188 0.328477,-0.18316 0.601466,-0.55734 z m -13.87098,35.7609 c -0.0092,-0.42285 -0.06885,-0.67105 -0.188157,-0.69321 -0.1192,-0.0224 -0.04244,0.22898 0.188157,0.69321 z M 23.322351,235.48745 a 6.7170968,7.8035767 60.834892 0 1 9.816772,1.72414 6.7170968,7.8035767 60.834892 0 1 -2.892083,9.78 6.7170968,7.8035767 60.834892 0 1 -10.292259,-1.44323 6.7170968,7.8035767 60.834892 0 1 2.89156,-9.7801 6.7170968,7.8035767 60.834892 0 1 0.476029,-0.28078 z m 9.8747,24.71733 a 2.9460954,3.4226213 60.834892 0 1 4.424472,0.90465 2.9460954,3.4226213 60.834892 0 1 -1.552999,4.2406 2.9460954,3.4226213 60.834892 0 1 -4.424491,-0.90467 2.9460954,3.4226213 60.834892 0 1 1.553018,-4.24058 z m -20.226802,12.63784 a 6.7170968,7.8035767 60.834892 0 1 10.087631,2.06259 6.7170968,7.8035767 60.834892 0 1 -3.540619,9.66868 6.7170968,7.8035767 60.834892 0 1 -10.0878019,-2.0629 6.7170968,7.8035767 60.834892 0 1 3.5407899,-9.66837 z m 79.182558,-37.76238 c 0.4525,-0.0246 0.73124,-0.0899 0.78356,-0.20365 0.0523,-0.11371 -0.23404,-0.0318 -0.78356,0.20365 z m -42.806846,66.7822 c -0.06611,0.0426 -0.07881,0.0983 -0.03141,0.16864 0.09501,0.1409 0.226133,0.0378 0.383766,-0.25689 -0.166468,0.0169 -0.286267,0.0458 -0.35238,0.0882 z m 17.63082,3.1581 c 0.342953,0.38906 0.547257,0.55536 0.571754,0.43686 0.02439,-0.1184 -0.183443,-0.26755 -0.571754,-0.43686 z"
       id="path3856"
       inkscape:connector-curvature="0" />
    <g
       id="g4311"
       transform="translate(6.0717848,-5.2342971)">
      <ellipse
         ry="6.8031864"
         rx="1.8192999"
         cy="262.61597"
         cx="118.36229"
         id="path4125"
         style="fill:#d45500;stroke-width:0.09599283" />
      <ellipse
         ry="6.8031869"
         rx="1.8192999"
         cy="263.06952"
         cx="125.07973"
         id="path4125-8"
         style="fill:#d45500;stroke-width:0.09599283" />
      <ellipse
         ry="6.8031869"
         rx="1.8192999"
         cy="262.98706"
         cx="121.86096"
         id="path4125-3"
         style="fill:#d45500;stroke-width:0.09599283" />
      <ellipse
         ry="6.8031869"
         rx="1.8192999"
         cy="262.84274"
         cx="136.13545"
         id="path4125-2"
         style="fill:#d45500;stroke-width:0.09599283" />
      <ellipse
         ry="6.8031874"
         rx="1.8192999"
         cy="263.2963"
         cx="142.85287"
         id="path4125-8-3"
         style="fill:#d45500;stroke-width:0.09599283" />
      <ellipse
         ry="6.8031874"
         rx="1.8192999"
         cy="263.21384"
         cx="139.63411"
         id="path4125-3-1"
         style="fill:#d45500;stroke-width:0.09599283" />
      <circle
         r="29.035336"
         cy="236.177"
         cx="130.66476"
         id="path3875"
         style="fill:#803300;stroke-width:0.26458332" />
      <path
         inkscape:connector-curvature="0"
         id="path3877"
         d="m 122.56585,216.89171 a 11.475715,10.010096 45.020177 0 0 -2.09645,0.18759 11.475715,10.010096 45.020177 0 0 -6.78483,12.58588 11.475715,10.010096 45.020177 0 0 13.63218,8.57383 11.475715,10.010096 45.020177 0 0 3.52477,-1.49086 9.8710584,11.637356 47.987051 0 0 3.19692,1.49038 9.8710584,11.637356 47.987051 0 0 14.22254,-7.97032 9.8710584,11.637356 47.987051 0 0 -5.87658,-12.86024 9.8710584,11.637356 47.987051 0 0 -11.15936,3.44804 11.475715,10.010096 45.020177 0 0 -8.65919,-3.9643 z"
         style="fill:#e3dbdb;stroke-width:0.14058109" />
      <path
         inkscape:connector-curvature="0"
         id="ellipse3886"
         d="m 124.37079,223.10855 a 3.6731448,4.1978794 0 0 0 -3.67316,4.19768 3.6731448,4.1978794 0 0 0 3.67316,4.19767 3.6731448,4.1978794 0 0 0 3.67264,-4.19767 3.6731448,4.1978794 0 0 0 -3.67264,-4.19768 z m -0.632,2.05207 a 1.4656031,1.570289 0 0 1 1.46554,1.57045 1.4656031,1.570289 0 0 1 -1.46554,1.57044 1.4656031,1.570289 0 0 1 -1.46555,-1.57044 1.4656031,1.570289 0 0 1 1.46555,-1.57045 z"
         style="fill:#1a1a1a;stroke-width:0.038325" />
      <path
         style="fill:#1a1a1a;stroke-width:0.038325"
         d="m 136.9331,222.05021 a 3.6731448,4.1978794 0 0 0 -3.67316,4.19768 3.6731448,4.1978794 0 0 0 3.67316,4.19767 3.6731448,4.1978794 0 0 0 3.67264,-4.19767 3.6731448,4.1978794 0 0 0 -3.67264,-4.19768 z m -0.632,2.05207 a 1.4656031,1.570289 0 0 1 1.46554,1.57045 1.4656031,1.570289 0 0 1 -1.46554,1.57044 1.4656031,1.570289 0 0 1 -1.46555,-1.57044 1.4656031,1.570289 0 0 1 1.46555,-1.57045 z"
         id="path3907"
         inkscape:connector-curvature="0" />
      <path
         d="m 141.95413,208.83043 a 0.62811565,0.20937188 0 0 1 -0.47275,0.20286 0.62811565,0.20937188 0 0 1 -0.70662,-0.1025 0.62811565,0.20937188 0 0 1 0.12319,-0.25358 0.62811565,0.20937188 0 0 1 0.76756,-0.0229"
         sodipodi:open="true"
         sodipodi:end="5.2834084"
         sodipodi:start="0"
         sodipodi:ry="0.20937188"
         sodipodi:rx="0.62811565"
         sodipodi:cy="208.83043"
         sodipodi:cx="141.32602"
         sodipodi:type="arc"
         id="path3919"
         style="fill:#803300;stroke-width:0.26458332" />
      <path
         inkscape:connector-curvature="0"
         id="path3951"
         d="m 126.18893,238.99285 c -0.16021,0.006 1.34399,1.04263 1.21415,1.14553 -0.56493,0.44771 -5.82974,2.57652 -6.42164,2.9804 -0.13603,0.0929 1.64026,0.16783 1.57484,0.32796 -0.28465,0.6968 -3.87129,5.42059 -4.19931,6.09416 -0.0754,0.1548 1.49707,-0.75203 1.51359,-0.57759 0.0719,0.75917 -0.87548,6.81233 -0.85176,7.57512 0.006,0.17529 0.95291,-1.47037 1.04695,-1.32832 0.40918,0.61812 2.35481,6.37867 2.72393,7.02628 0.0848,0.14884 0.15324,-1.79469 0.29959,-1.72312 0.63683,0.31146 4.95427,4.23581 5.56988,4.59471 0.14148,0.0825 -0.68733,-1.63819 -0.52788,-1.65627 0.27232,-0.0309 1.30389,0.11355 2.48285,0.29485 -0.003,0.0128 -0.006,0.0259 -0.009,0.0388 0.0456,-0.007 0.0866,-0.0131 0.13196,-0.02 0.0453,0.007 0.0863,0.013 0.13198,0.02 -0.003,-0.0128 -0.006,-0.0258 -0.009,-0.0388 1.17896,-0.18128 2.21054,-0.32572 2.48285,-0.29485 0.15946,0.0181 -0.66935,1.73879 -0.52788,1.65627 0.61561,-0.3589 4.93305,-4.28325 5.56988,-4.59471 0.14636,-0.0716 0.21477,1.87195 0.2996,1.72312 0.36911,-0.64762 2.31474,-6.40816 2.72393,-7.02628 0.094,-0.14205 1.0415,1.50361 1.04694,1.32832 0.0237,-0.7628 -0.92365,-6.81594 -0.85176,-7.57512 0.0165,-0.17445 1.58899,0.73239 1.51361,0.57759 -0.32803,-0.67358 -3.91467,-5.39736 -4.19933,-6.09416 -0.0655,-0.16013 1.71087,-0.23514 1.57484,-0.32796 -0.59188,-0.40388 -5.85671,-2.53269 -6.42164,-2.9804 -0.12983,-0.10287 1.37437,-1.13957 1.21415,-1.14553 -0.43087,-0.016 -2.70693,0.37341 -4.54792,0.65499 -1.841,-0.28158 -4.11705,-0.67104 -4.54793,-0.65499 z"
         style="fill:#ffe6d5;stroke-width:0.07607976" />
      <path
         sodipodi:nodetypes="sscccccss"
         inkscape:connector-curvature="0"
         id="path3782-8"
         d="m 104.86807,234.29295 c -4.949409,1.57254 -7.653109,6.82332 -6.038859,11.72821 1.614249,4.90487 13.514819,17.23621 18.464229,15.66369 0,0 -0.35184,3.80867 0,0 0,0 1.58994,0.574 0,0 -2.76636,-1.00937 -8.26859,-9.28006 -8.26545,-16.73638 0.003,-4.52094 0.77595,-7.18973 2.17486,-9.1793 -1.97497,-0.78772 -4.15581,-2.16853 -6.33478,-1.47621 z"
         style="fill:#a02c2c;stroke-width:0.12663364" />
      <path
         style="fill:#a02c2c;stroke-width:0.12663364"
         d="m 156.00464,233.9488 c 4.94731,1.57904 7.6441,6.83337 6.02341,11.73614 -1.6207,4.90273 -13.5375,17.2184 -18.48484,15.63937 0,0 0.34683,3.80913 0,0 0,0 -1.59069,0.57191 0,0 2.76768,-1.00572 8.28081,-9.26916 8.28748,-16.72549 0.003,-4.52095 -0.7665,-7.19074 -2.16277,-9.18215 1.976,-0.78512 4.15865,-2.16306 6.3367,-1.46787 z"
         id="path4042"
         inkscape:connector-curvature="0"
         sodipodi:nodetypes="sscccccss" />
      <path
         inkscape:connector-curvature="0"
         id="path4169"
         d="m 117.61546,205.3505 c -0.10618,0.0811 1.80698,3.05961 1.5696,3.18741 -0.83283,0.44825 -7.95619,0.41584 -8.81601,0.72242 -0.25299,0.0902 2.55542,1.26981 2.38631,1.57149 -0.57476,1.02529 -6.75432,6.44631 -7.39875,7.36957 -0.18961,0.27165 2.62738,-0.85516 2.57951,-0.46458 -0.0393,0.32094 -0.2807,1.12075 -0.62419,2.15852 0.1507,-0.012 0.30222,-0.0186 0.45497,-0.0186 h 0.0581 a 11.290021,13.713858 0 0 1 10.46363,-8.58395 11.290021,13.713858 0 0 1 10.47916,8.64028 c 0.86385,0.12049 1.68953,0.43701 2.45724,0.92295 -0.0479,-2.64663 -0.0937,-5.08514 -0.18171,-5.66269 -0.059,-0.38709 -0.82963,3.90913 -1.02681,3.6504 -0.67015,-0.87934 -4.21341,-10.33375 -4.81687,-11.31972 -0.17755,-0.29009 0.55897,4.02026 0.30365,3.94705 -0.86775,-0.24889 -7.02612,-5.72627 -7.87094,-6.11849 -0.008,-0.004 -0.0135,-0.005 -0.0169,-0.002 z m 13.60958,15.50551 c 0.76771,-0.48594 1.59339,-0.80246 2.45724,-0.92295 a 11.290021,13.713857 0 0 1 10.47917,-8.64028 11.290021,13.713857 0 0 1 10.46363,8.58395 h 0.0581 c 0.15275,0 0.30427,0.007 0.45497,0.0191 -0.34349,-1.03777 -0.58486,-1.83758 -0.62419,-2.15852 -0.0478,-0.39061 2.76913,0.7362 2.57952,0.46455 -0.64444,-0.92326 -6.82399,-6.34426 -7.39875,-7.36957 -0.16911,-0.30165 2.63929,-1.48127 2.38631,-1.57147 -0.85982,-0.30659 -7.98318,-0.27416 -8.81601,-0.72244 -0.23738,-0.12777 1.67578,-3.10629 1.5696,-3.18741 -0.003,-0.003 -0.009,-0.002 -0.0169,0.002 -0.84482,0.39222 -7.0032,5.8696 -7.87094,6.11849 -0.25532,0.0732 0.4812,-4.23714 0.30365,-3.94705 -0.60346,0.98597 -4.14672,10.44038 -4.81687,11.31972 -0.19718,0.25873 -0.96785,-4.03749 -1.02681,-3.6504 -0.088,0.57758 -0.1338,3.01606 -0.18172,5.66269 z"
         style="fill:#333333;stroke-width:0.21390636" />
      <path
         sodipodi:nodetypes="ccccccccc"
         inkscape:connector-curvature="0"
         id="path4234"
         d="m 129.15372,231.30552 c -0.69839,-0.006 -1.21729,0.13412 -1.32037,0.47757 -0.009,0.0295 -0.0157,0.0673 -0.0214,0.10949 -0.0627,0.0572 0,0 0,0 -0.3665,1.22116 2.29635,13.07855 2.92114,13.2282 0.0985,0.0236 -0.20708,0.44909 0,0 1.02658,-1.90555 3.23358,-10.35465 3.00525,-11.56646 -0.18564,-0.98526 -2.79975,-2.23291 -4.58455,-2.2488 z"
         style="fill:#ff6600;stroke-width:0.07838729" />
      <path
         inkscape:connector-curvature="0"
         id="path4275"
         d="m 112.17083,232.37496 c -10.35665,5.46848 -10.58179,6.03418 -10.58179,6.03418 l 8.55547,-2.63997 -6.52917,4.33708 7.20462,-2.82854 -1.35088,3.2057 5.40347,-3.58281 -0.90059,-0.18872"
         style="fill:#800000;stroke:#000000;stroke-width:0.26038054px;stroke-linecap:butt;stroke-linejoin:miter;stroke-opacity:1" />
      <path
         inkscape:connector-curvature="0"
         id="path4275-1"
         d="m 150.06595,231.51563 c 9.25254,8.76595 9.43607,9.37674 9.43607,9.37674 l -7.71742,-5.4757 5.79803,6.36297 -6.47502,-5.1805 1.10859,3.48747 -4.79864,-5.25981 0.83076,0.13756"
         style="fill:#550000;stroke:#000000;stroke-width:0.24336764px;stroke-linecap:butt;stroke-linejoin:miter;stroke-opacity:1" />
    </g>
    <path
       style="fill:#d4aa00;stroke:#000000;stroke-width:0.26458332px;stroke-linecap:butt;stroke-linejoin:miter;stroke-opacity:1"
       d="m 78.933198,273.13159 -1.046861,4.81555"
       id="path4321"
       inkscape:connector-curvature="0" />
    <path
       id="path4353"
       transform="scale(0.26458333)"
       style="fill:#ffd42a;stroke-width:0.6563738"
       d="m 613.74609,1185.6836 c -0.61581,0.2208 -1.21492,0.4726 -1.75976,0.8242 -0.42316,0.1562 -0.83176,0.3345 -1.23242,0.5234 0.60321,0.1689 1.2071,0.3361 1.79882,0.5352 0.0922,0 0.18268,0.011 0.27344,0.023 0.025,-0.06 0.0532,-0.1189 0.0762,-0.1796 0.2497,-0.6594 0.5351,-1.2303 0.84375,-1.7266 z m 9.46094,4.0996 c -0.0222,0.077 -0.0322,0.1481 -0.0566,0.2266 0.39072,-0.03 0.78268,-0.069 1.17578,-0.127 0.1661,-0.029 0.33042,-0.068 0.4961,-0.1 z m 61.86133,2.3828 v 0 c -0.52465,0.06 -1.18136,0.05 -1.89453,0.029 -0.58252,0.7514 -1.92756,0.07 -2.95703,-0.022 -0.62892,0 -1.25782,9e-4 -1.88672,0 0.26412,0.5151 0.46253,1.0591 0.63672,1.6074 0.43419,1.0146 -0.0761,1.914 -0.70313,2.875 -0.65238,1.2779 -1.67095,2.4151 -2.51953,3.6172 -0.78327,0.8127 -1.29564,1.6785 -1.63281,2.6426 -0.35377,0.3924 -0.32315,0.8873 -0.53125,1.3047 -0.17764,0.3572 -0.5435,0.7686 -0.83203,1.08 -0.56319,0.9336 -0.95478,1.9361 -1.33594,2.918 -0.0514,0.1833 -0.0897,0.3695 -0.1543,0.5508 -0.28989,0.8112 -0.16491,0.1089 -0.34179,0.9844 -0.10772,0.5316 -0.0699,0.968 -0.31446,1.4843 -0.44825,0.9214 -0.45921,1.8798 -0.60351,2.8262 -0.26797,0.533 -0.36879,1.0772 -0.41993,1.6289 l 6.9375,-4.7031 c 0.11528,-0.5431 0.31198,-1.0772 0.41407,-1.6211 0.14853,-0.9266 0.25402,-1.8476 0.66992,-2.752 0.20712,-1.0026 0.38601,-1.9975 0.83203,-2.9765 0.41836,-0.9509 0.76681,-1.9346 1.48242,-2.7949 0.52033,-0.8137 0.85331,-1.6629 1.23047,-2.5157 0.43744,-0.8941 1.07943,-1.6944 1.72656,-2.5117 0.89491,-1.1895 1.7747,-2.3881 2.4668,-3.6543 -0.0898,10e-5 -0.17969,-2e-4 -0.26953,0 z m -51.75195,6.041 c -1.69665,0.9826 -3.37983,1.9876 -5.04493,3.0235 -0.81734,0.5084 -1.80407,1.147 -2.84179,1.8379 0.33233,0.01 0.66402,0.029 0.99609,0.068 0.97191,0.2374 1.11716,1.2074 1.31445,1.9375 0.24832,1.0206 0.50361,2.0421 0.6543,3.084 0.10016,0.8607 0.14605,1.7277 -0.1582,2.6035 -0.14589,0.9003 -0.23074,1.7956 -0.33203,2.6953 -0.271,1.2903 -0.48542,2.583 -0.87891,3.8653 -0.43718,1.9914 -0.74335,3.9888 -1.25,5.9765 -0.33562,1.8877 -0.53197,3.7577 -0.49414,5.6328 -0.72469,0.1739 -1.44944,0.3435 -2.17383,0.5235 -2.02458,0.4915 -4.04747,0.9849 -6.07617,1.459 l -0.85742,0.8164 c 0.39723,-0.4461 0.78476,-0.897 1.15039,-1.3614 l -7.12695,4.4082 c -0.6237,0.7356 -1.27296,1.4553 -1.91797,2.1797 -1.54281,1.7456 -3.25644,3.3919 -4.79883,5.1387 -1.89222,1.8768 -3.88281,3.6923 -5.85742,5.5137 -0.34205,0.2986 -0.43093,0.377 -0.64844,0.5664 -2.75282,1.8887 -5.48306,3.8032 -8.24219,5.6855 -2.33427,1.6245 -4.65254,3.2594 -7.04687,4.8223 -3.74699,2.4428 -7.55961,4.8064 -11.36914,7.1797 -3.91552,2.4869 -7.91294,4.8777 -11.87305,7.3125 -1.76481,1.1488 -3.47701,2.3819 -5.29492,3.4707 -2.23907,1.3412 -4.65097,2.4536 -6.94922,3.7148 -5.78113,3.0766 -11.552,6.1726 -17.19922,9.4258 -2.68547,1.6873 -5.4696,3.2965 -8.0918,5.0527 -2.08637,1.3973 -4.0653,2.9132 -6.30078,4.1543 -5.18891,3.0978 -10.31364,6.2872 -15.73242,9.0938 -1.99083,0.9808 -5.28206,2.6339 -7.29492,3.5 -5.60402,2.4118 -11.50165,4.265 -17.0918,6.709 -8.87543,3.5442 -17.79838,6.998 -26.85742,10.1426 -5.54525,1.8486 -11.09988,3.6915 -16.74805,5.25 -5.56588,1.5354 -11.21159,2.8136 -16.79297,4.2929 -10.36826,2.5331 -20.74117,5.0427 -31.11132,7.5684 -11.05622,2.6264 -22.12141,5.2862 -33.30469,7.2715 -4.54095,0.7514 -6.18126,1.0649 -10.75781,1.6484 -6.8253,0.8701 -13.66792,1.3424 -20.49805,2.0254 -3.24858,0.2846 -6.49773,0.5146 -9.74609,0.8242 -6.39085,0.6088 -12.77805,1.4841 -19.16602,2.1738 -10.07172,1.2076 -20.1474,2.3017 -30.22461,3.3789 -10.74627,1.1775 -21.50011,2.1359 -32.25,3.0762 -10.43881,1.0005 -20.88538,1.7982 -31.25781,1.6094 -2.14805,-8e-4 -6.86427,0.013 -9.09571,-0.041 -5.52479,-0.1368 -10.99886,-0.5752 -16.49609,-0.8496 -9.20197,-0.6099 -18.40166,-1.2319 -27.53906,-2.1055 -5.45892,-0.582 -4.85179,-0.499 -10.26367,-1.1504 -5.04777,-0.6077 -10.12932,-1.223 -15.02539,-2.2598 -1.39729,-0.2959 -2.75083,-0.6837 -4.12696,-1.0253 -7.10083,-2.0156 -14.176988,-4.0865 -21.154294,-6.3223 -3.5662,-1.2361 -7.478989,-2.2442 -10.228516,-4.4942 l -6.476562,5.0938 c 0.742265,0.5707 1.555254,1.0593 2.416015,1.4902 l -3.199219,2.0157 c -0.94207,1.4853 -2.085754,2.865 -3.373046,4.1816 -0.861854,1.0288 -1.461087,2.2078 -1.888672,3.377 -0.382473,0.6175 -0.759201,1.2376 -1.136719,1.8554 -0.683259,1.1613 -1.35812,2.317 -1.931641,3.5078 -0.35913,1.0999 -1.264384,2.0298 -1.873047,3.0645 -0.565243,1.0731 -1.025427,2.1899 -1.822265,3.1836 -0.909646,1.2962 -1.78375,2.6118 -2.855469,3.834 -0.907147,1.1967 -1.922373,2.3369 -2.935547,3.4804 -1.07478,1.0054 -1.942134,2.1551 -2.666016,3.334 -0.0076,0.011 -0.01626,0.024 -0.02344,0.035 l -0.855469,0.5664 c -0.04668,0.1758 -0.07293,0.3489 -0.09961,0.5234 -0.493538,0.4551 -1.032625,0.8818 -1.488281,1.3653 -0.126804,0.1082 -0.252077,0.2172 -0.378907,0.3261 l 1.810547,-1.0859 c -0.02117,0.5506 0.02644,1.0957 0.123047,1.6406 0.121323,0.5525 0.242741,1.1053 0.371094,1.6563 l -1.503906,1.1914 c 0.815508,0.6105 1.648364,1.2054 2.488281,1.7929 -0.335811,0.686 -0.875525,1.343 -1.181641,1.6778 0.211125,-0.2165 0.61533,-0.6138 1.517578,-1.4434 2.985358,2.0728 6.090757,4.0311 9.144532,6.0391 6.290105,4.1701 12.629011,8.2963 19.126953,12.2597 3.174387,2.0296 6.882315,3.447 10.259765,5.2364 0.853731,0.4524 1.633997,0.9842 2.451172,1.4765 3.599876,2.1688 1.740983,1.0813 5.470699,3.1992 7.69124,3.713 16.18954,6.295 24.54883,9.0079 8.82219,3.1091 18.22664,5.1452 27.72852,6.873 12.89738,2.2597 26.07745,3.6702 39.24805,5.0859 10.1615,1.1561 20.5469,1.4594 30.92773,1.5782 2.52793,0.03 5.05368,0.074 7.58984,0.039 2.60433,-0.038 5.21917,-0.1676 7.82813,-0.2519 2.4403,-0.1031 4.87943,-0.1984 7.32031,-0.3106 8.50362,-0.391 6.27096,-0.3654 14.93945,-0.6738 7.48978,-0.2665 14.95861,-0.3658 22.43164,-0.4629 12.0248,-0.2264 24.087,-0.5894 36.15821,-1.5117 2.55382,-0.195 5.10813,-0.4534 7.66211,-0.6797 15.29306,-1.4698 30.5898,-3.2356 45.83789,-5.5293 13.41332,-2.1796 26.69225,-5.191 39.94531,-8.2539 12.98517,-3.0722 25.93498,-6.2948 38.89453,-9.4727 12.99833,-3.1532 25.99438,-6.3108 39,-9.4335 9.9662,-2.3713 19.65111,-5.6372 29.41016,-8.6602 10.17014,-3.2171 20.37775,-6.3296 30.58984,-9.4277 8.27361,-2.4851 16.37337,-5.4616 24.42774,-8.4903 4.99838,-2.0789 10.11487,-3.9166 15.16992,-5.875 2.46648,-0.9556 4.8278,-1.9746 7.25781,-3 6.38529,-2.8163 12.38188,-6.1923 18.24805,-9.7285 5.25449,-3.4036 10.90256,-6.3927 16.0039,-9.9629 0.92954,-0.6504 1.81411,-1.3432 2.72071,-2.0156 6.46382,-4.751 12.55673,-9.8237 18.13672,-15.2559 3.1646,-3.1221 6.14832,-6.3431 9.13085,-9.5742 2.39891,-2.4103 4.76154,-4.812 6.39063,-7.5937 1.79637,-2.6995 3.36098,-5.4743 4.91406,-8.2539 0.27213,-0.5058 0.5384,-1.0127 0.81446,-1.5176 0.26718,-0.4885 0.57925,-0.9641 0.81445,-1.461 0.97039,-2.0505 1.49919,-4.1913 2.19726,-6.2851 0.94651,-2.91 1.71531,-5.8367 2.23829,-8.7813 0.56867,-2.8709 1.30014,-5.7278 1.91601,-8.5957 0.44432,-2.647 1.32885,-5.2536 2.4375,-7.8183 1.12067,-2.1777 1.7135,-4.4474 2.45508,-6.6914 0.71792,-2.4199 1.51307,-4.831 2.26758,-7.2461 0.41525,-2.1221 1.0505,-4.2233 1.55468,-6.3399 0.40226,-1.9511 0.97973,-3.8879 1.42579,-5.8359 0.28762,-1.7973 0.86072,-3.5751 1.28906,-5.3633 0.27401,-1.6945 0.23176,-3.3927 0.0957,-5.0605 -0.26419,-1.7747 -0.46571,-3.5565 -0.66992,-5.3418 -0.34432,-1.4978 -0.31843,-3.0469 -0.39844,-4.584 -0.0302,-0.2135 -0.0837,-0.4242 -0.0859,-0.6406 -0.002,-0.22 0.15286,-1.0795 0.16797,-1.293 0.0582,-0.818 -9.1e-4,-1.6366 -0.043,-2.4453 -0.10658,-1.4772 -0.41934,-2.9182 -0.74218,-4.3535 -0.31635,-1.3356 -0.64461,-2.6673 -0.96485,-4.002 -0.35565,-1.0674 -0.43648,-2.1713 -0.49804,-3.293 0.17272,-1.1254 0.11052,-2.2366 -0.0156,-3.3359 0.0873,-1.0932 -0.0102,-2.1621 -0.16211,-3.2266 -0.25512,-0.9387 -0.1469,-1.9211 -0.21679,-2.8886 -0.0552,-0.6669 -0.17493,-1.3226 -0.30079,-1.9766 l -6.78515,4.834 c 0.008,0.038 0.01,0.076 0.0176,0.1133 -0.31975,0.1886 -0.63695,0.3778 -0.9629,0.5605 -0.60922,0.328 -1.22142,0.7625 -1.85937,1.041 -0.73731,0.322 -1.58843,0.4532 -2.30469,0.8282 -1.37801,0.6411 -2.69321,1.3678 -3.98437,2.1269 -1.41294,0.877 -2.79592,1.7879 -4.1875,2.6895 -1.9996,1.2525 -4.4098,1.8991 -6.59766,2.8652 -2.17674,0.9473 -4.38216,1.8347 -6.46094,2.9492 -1.8791,0.8639 -3.88642,1.3659 -5.91992,1.8184 -1.92759,0.472 -3.85588,0.9432 -5.78711,1.4004 -1.94566,0.4569 -3.89494,0.9039 -5.86328,1.2422 -2.5375,0.4275 -5.08723,0.7335 -7.61328,1.248 -1.77471,0.3171 -3.53049,0.7115 -5.2832,1.127 l 6.3789,-4.4004 c -0.20825,-1.9066 0.13149,-3.8188 0.48242,-5.7461 0.53923,-1.9857 0.82442,-3.9807 1.28711,-5.9707 0.4043,-1.2965 0.70527,-2.6079 0.91602,-3.916 0.0941,-0.8831 0.0499,-1.8052 0.38086,-2.6778 0.26835,-0.9246 0.11682,-1.8601 -0.0195,-2.7578 -0.19314,-1.0492 -0.4507,-2.0849 -0.70117,-3.1211 -0.18118,-0.8359 -0.49163,-1.5206 -1.1875,-2.0215 z m 49.55273,13.5879 c 0.0227,0.6222 0.0641,1.2408 0.2168,1.8457 0.13039,1.0645 0.13111,2.1389 0.15039,3.2168 0.0998,1.099 0.053,2.2035 0,3.3164 0.0748,1.1455 0.2424,2.266 0.58203,3.3594 0.33373,1.3261 0.66302,2.6534 0.96875,3.9863 0.31408,1.4064 0.59911,2.8236 0.67969,4.2735 0.0521,1.4674 -0.16752,2.9448 -0.0645,4.4043 0.0113,0.1542 0.0219,0.3083 0.0332,0.4629 -0.88048,0.4296 -1.73481,0.9092 -2.48047,1.4902 -0.49493,0.3866 -0.99125,0.7716 -1.48633,1.1582 0.0484,-0.047 -0.36403,0.2382 -0.53906,0.3652 -0.94768,0.684 -0.15532,0.2406 -1.34375,0.8106 -1.90806,1.029 -3.70466,2.1904 -5.46875,3.3847 -1.3564,0.9013 -2.88118,1.6569 -4.38086,2.3731 -0.78951,0.3681 -1.55262,0.8391 -2.35547,1.1777 -0.71879,0.3028 -1.52374,0.4566 -2.23633,0.7793 -1.32332,0.4653 -2.7151,0.7119 -4.07422,1.0684 -1.37767,0.3345 -2.75401,0.6679 -4.13086,1.0058 -1.5095,0.3704 -3.02279,0.7348 -4.5332,1.1016 -1.48989,0.3594 -2.97747,0.7302 -4.4668,1.0918 -1.55996,0.3757 -3.11596,0.7617 -4.68359,1.1035 -1.59303,0.336 -3.1945,0.6369 -4.81055,0.75 -1.6879,0.1535 -3.37736,0.4382 -5.05078,0.2891 -1.83893,-0.068 -3.66441,0.02 -5.51562,0.1152 -1.71598,0.043 -3.22676,-0.6256 -4.80079,-0.998 0.97448,-1.1624 2.06335,-2.2734 3.0254,-3.4375 0.99065,-0.992 1.6977,-2.1347 2.62304,-3.1582 0.94738,-1.048 0.19838,-0.054 0.99219,-1.1817 0.66818,-1.0919 1.29071,-2.1962 1.94336,-3.2949 0.21883,-0.5002 0.33903,-1.067 0.62109,-1.5527 0.24454,-0.4215 0.65195,-0.8645 0.94532,-1.2735 0.61882,-0.946 0.81549,-1.9811 1.36718,-2.9433 0.34885,-0.8249 0.73741,-1.6086 0.75196,-2.4629 0.32806,-0.8513 0.76283,-1.6921 0.98242,-2.5586 0.0469,-0.209 0.0885,-0.4213 0.13086,-0.6328 0.74528,-0.1576 1.49196,-0.3129 2.23437,-0.4844 1.93648,-0.4546 3.86661,-0.936 5.80078,-1.4004 2.06567,-0.4666 4.10384,-0.9899 6.06836,-1.7578 2.13642,-1.0186 4.26895,-2.0245 6.46289,-2.9453 2.20453,-0.9707 4.53651,-1.7223 6.67383,-2.8047 1.42262,-0.8533 2.81142,-1.7457 4.19922,-2.6387 1.25892,-0.7805 2.55803,-1.5095 3.89844,-2.1836 1.41615,-0.6033 2.84394,-1.1147 4.18945,-1.8379 1.26093,-0.6671 2.44646,-1.4326 3.71094,-2.0937 0.97553,-0.4838 2.04543,-0.7702 3.05664,-1.1836 z m -51.22266,20.3047 v 0 l -1.36718,0.9101 c -0.17802,0.5614 -0.0837,0.277 -0.28321,0.8516 -0.2434,0.8762 -0.43961,1.7573 -0.66797,2.6347 -0.33067,0.874 -0.72549,1.7446 -0.89648,2.6387 -0.17839,0.7822 -0.5588,1.5441 -0.90039,2.3008 -0.41424,0.9711 -0.76546,1.963 -1.43164,2.8652 -0.63182,0.9266 -1.08563,1.8808 -1.52734,2.8633 -0.63342,1.0801 -1.21223,2.1849 -1.98243,3.2149 -0.70038,0.8318 -1.3895,1.6684 -2.08203,2.5039 -1.64659,-0.5729 -3.27913,-1.1681 -5.00781,-1.6016 -1.96399,-0.5792 -4.04409,-0.9643 -6.06641,-1.4316 -1.62909,-0.1565 -3.29132,-0.1742 -4.94921,-0.1856 -1.45055,0.35 -2.9024,0.6975 -4.34961,1.0606 -2.01608,0.5334 -4.04127,1.0869 -5.96875,1.8613 -1.53627,0.6562 -2.86067,1.5662 -4.28907,2.3691 0.62544,-0.4311 1.24693,-0.8645 1.87305,-1.2949 4.43116,-3.3589 8.93893,-6.684 13.01367,-10.334 1.94676,-1.8497 3.98538,-3.6415 5.82813,-5.5586 0.42723,-0.4982 0.87443,-0.9834 1.32812,-1.4648 1.79191,-0.4429 3.58319,-0.8867 5.37696,-1.3223 1.31554,-0.3273 2.63061,-0.6582 3.94921,-0.9668 1.3177,-0.3122 2.63932,-0.6012 3.97266,-0.8437 2.1329,-0.4342 4.28153,-0.7449 6.42773,-1.0723 z m 53.95899,6.7363 v 0 c 0.0673,0.6464 0.14991,1.2915 0.26367,1.9316 0.19465,1.7796 0.44574,3.5467 0.64844,5.3243 0.0775,1.6307 0.13596,3.2831 -0.22461,4.9335 -0.44232,1.7874 -0.97162,3.5706 -1.27735,5.3672 -0.45317,1.9447 -1.00942,3.8808 -1.42578,5.8282 -0.49976,2.1007 -1.08547,4.1928 -1.56445,6.2949 -0.76452,2.4077 -1.47946,4.8206 -2.25781,7.2265 -0.75239,2.2368 -1.40963,4.4888 -2.50196,6.6661 -1.03665,2.5918 -1.85398,5.2143 -2.3164,7.871 -0.63175,2.868 -1.35164,5.7305 -1.89453,8.6036 -0.58916,2.9203 -1.32614,5.8292 -2.28516,8.7168 -1.01435,3.1453 -2.02741,6.1994 -3.90625,9.1679 -1.57459,2.7843 -3.19716,5.5494 -4.98242,8.2637 -1.73662,2.6809 -4.07617,5.0415 -6.38867,7.4356 -2.96776,3.2224 -5.98383,6.4153 -9.13867,9.5253 -1.76168,1.6748 -3.54244,3.3441 -5.37305,4.9707 -0.62298,0.5534 -2.61438,2.1126 -1.90625,1.6329 0.0718,-0.053 0.14032,-0.1021 0.21289,-0.1524 -0.48771,0.379 -0.97875,0.7563 -1.48438,1.1192 -5.03278,3.6116 -10.70015,6.5522 -15.93359,9.9472 -5.87093,3.5394 -11.81737,6.9839 -18.1875,9.8438 -2.0702,0.8799 -5.12256,2.194 -7.22266,3.0156 -5.05799,1.9788 -10.20322,3.7826 -15.19726,5.8965 -8.04907,3.0815 -16.1846,6.0117 -24.44336,8.5859 -10.20503,3.1179 -20.39486,6.2838 -30.5918,9.4238 -9.78296,3.0327 -19.48219,6.3304 -29.45508,8.7754 -13.04968,3.2076 -26.1059,6.389 -39.1582,9.586 -12.91336,3.1278 -25.82697,6.2502 -38.74805,9.3457 -13.26251,3.1394 -26.56427,6.1872 -40,8.3984 -15.24416,2.353 -30.53552,4.1546 -45.83203,5.5957 -14.60288,1.2119 -29.21227,2.068 -43.75586,2.2129 -0.70941,0.011 -14.43947,0.2099 -15.06445,0.2246 -9.87845,0.234 -19.77754,0.7498 -29.67383,1.2422 -2.59581,0.085 -5.19517,0.212 -7.78711,0.2559 -4.68468,0.079 -10.98757,-0.023 -15.61523,-0.1485 -4.88022,-0.1304 -10.66651,-0.346 -15.49414,-0.7285 -2.44583,-0.1939 -4.86432,-0.4881 -7.29688,-0.7324 -13.11727,-1.3776 -26.22267,-2.8496 -39.01562,-5.2109 -2.12099,-0.4014 -7.36874,-1.378 -9.54883,-1.8516 -6.18234,-1.343 -12.22755,-3.0107 -18.08398,-4.9727 -8.28367,-2.7054 -16.70466,-5.294 -24.28321,-9.0429 -0.92635,-0.5286 -1.86555,-1.042 -2.77929,-1.584 -2.18014,-1.2931 -2.96459,-1.9319 -5.240239,-3.0801 -1.113248,-0.5616 -2.296423,-1.0387 -3.419922,-1.5879 -2.816995,-1.3772 -4.107317,-2.1252 -6.789062,-3.5957 -6.482257,-3.9647 -12.859295,-8.0363 -19.09375,-12.2461 -2.834752,-1.9614 -5.748506,-3.8559 -8.503906,-5.8906 0.03137,-0.2619 0.04225,-0.5759 0.04297,-0.9746 -0.09063,-1.6064 -0.296886,-3.2038 -0.15625,-4.834 l -1.478515,1.0195 c -0.0155,-0.068 -0.02901,-0.1358 -0.04492,-0.2031 0.03515,-0.4439 -0.08869,-0.8932 -0.09375,-1.3398 0.520055,-0.5174 0.995165,-1.0571 1.349609,-1.6641 0.812429,-1.1382 1.686717,-2.2414 2.734375,-3.2598 1.007876,-1.1393 1.950615,-2.3123 2.898438,-3.4824 1.007633,-1.2698 1.91135,-2.5843 2.839844,-3.8887 0.667295,-1.0501 1.162158,-2.1498 1.791015,-3.2129 0.683758,-1.019 1.447,-2.0091 1.832031,-3.1191 0.416988,-0.8228 0.885126,-1.6328 1.361328,-2.4394 l 0.765626,-0.5118 c 0.187234,-0.6419 0.445208,-1.2757 0.699218,-1.9082 0.59802,-0.981 1.207682,-1.9564 1.960938,-2.875 0.498697,-0.6213 1.01395,-1.2351 1.523437,-1.8515 2.077489,0.8277 4.313259,1.4569 6.445313,2.1738 7.040787,2.1829 14.152006,4.2417 21.281246,6.2656 1.39453,0.3379 2.76733,0.7237 4.1836,1.0137 4.95844,1.0154 10.09451,1.6206 15.1914,2.2383 6.90081,0.8362 3.26761,0.4255 10.26172,1.1679 9.09997,0.9575 18.29648,1.5508 27.47266,2.2071 5.49574,0.2797 10.96455,0.741 16.48828,0.8828 2.73113,0.07 6.49539,0.018 9.20117,0 10.41006,0.1538 20.89448,-0.6103 31.36914,-1.6055 10.7423,-0.9805 21.4844,-1.9205 32.22461,-3.041 10.09152,-1.0474 20.1791,-2.1807 30.26367,-3.4004 9.61278,-1.1485 19.22786,-2.1388 28.84766,-2.9766 6.84302,-0.7177 13.69798,-1.1658 20.53711,-2.0332 3.89023,-0.4937 6.94715,-1.0201 10.81641,-1.6445 11.20346,-2.0073 22.30479,-4.6175 33.38281,-7.2598 10.37715,-2.4595 20.73109,-5.0174 31.0918,-7.5449 5.59646,-1.4996 11.25705,-2.7842 16.84179,-4.3261 5.65319,-1.5609 11.22376,-3.3673 16.78125,-5.2012 9.03693,-3.0907 17.95229,-6.4772 26.79102,-10.0059 5.58909,-2.4453 11.46132,-4.3386 17.08594,-6.709 2.37343,-0.9999 4.99107,-2.2968 7.30664,-3.414 5.4116,-2.7398 10.539,-5.8637 15.68554,-8.9453 3.05299,-1.7482 5.81375,-3.8077 8.75196,-5.6817 1.8977,-1.2103 3.82161,-2.3938 5.73046,-3.5918 5.57787,-3.2914 11.33842,-6.3561 17.09766,-9.4101 2.28586,-1.2504 4.67317,-2.3649 6.92188,-3.666 1.82914,-1.0585 3.55445,-2.2477 5.30664,-3.3926 3.95093,-2.4797 7.96468,-4.8889 11.91406,-7.3711 3.77193,-2.3725 7.5832,-4.6979 11.31836,-7.1113 1.73397,-1.1136 3.42605,-2.2717 5.10937,-3.4375 l -2.98828,3.0214 c 1.83901,-0.9459 3.58604,-2.0134 5.4043,-2.9863 1.64889,-0.8246 3.14048,-1.8449 4.77539,-2.6855 1.848,-0.8496 3.83374,-1.4076 5.81055,-1.9375 1.43066,-0.3785 2.87384,-0.7166 4.31445,-1.0547 1.58033,-0.2071 3.18447,-0.113 4.73437,-0.01 2.02122,0.3424 4.01006,0.8035 5.95508,1.3184 2.20127,0.5252 4.26171,1.2964 6.35742,2.0058 -0.4851,0.6058 -0.95693,1.2193 -1.38867,1.8516 -0.83758,0.9597 -1.72534,1.8867 -2.61523,2.8164 -1.17729,1.0849 -2.39442,2.1469 -3.44531,3.3144 -1.15435,1.1358 -2.39624,2.2126 -3.60743,3.3106 -1.89403,1.338 -3.71289,2.7507 -5.73437,3.9609 -1.89725,1.2692 -3.87534,2.455 -5.75195,3.7481 -2.67372,1.7704 -5.61303,3.2571 -8.11719,5.2109 -4.45879,3.5291 -8.97968,6.9577 -12.9043,10.8848 -2.71464,2.7071 -5.49482,5.3736 -8.11328,8.1406 -1.14803,1.2014 -2.28703,2.4025 -3.53711,3.5371 -2.5231,1.7715 -5.16965,3.4263 -7.80859,5.0703 -4.30976,2.6311 -8.86563,4.9581 -13.13086,7.6446 -3.84945,2.4439 -7.75997,4.8237 -11.6875,7.1777 -4.19762,2.4257 -8.67826,4.4338 -12.86133,6.877 -3.70757,2.1328 -7.34509,4.3464 -11.05273,6.4785 -3.50125,1.7946 -7.05568,3.4653 -10.8125,4.8144 -3.59271,1.2644 -7.18493,2.5328 -10.65235,4.0625 -4.25333,1.733 -8.5819,3.316 -12.7793,5.1543 -4.00006,1.8259 -8.04594,3.6123 -12.39648,4.6445 -5.91723,1.6437 -11.88805,3.0816 -17.86133,4.5137 -6.32179,1.5234 -12.63955,3.0716 -19.00586,4.3926 -6.49999,1.2897 -13.0337,2.3686 -19.60547,2.8516 -6.42028,0.6727 -12.84322,1.2966 -19.25976,2.0683 -7.39529,0.8 -14.79238,1.5181 -22.18945,2.2383 -1.07687,0.1149 -4.43377,0.4836 -5.56446,0.5703 -2.67995,0.2056 -5.3597,0.2315 -8.04101,0.6524 -4.58423,0.4447 -9.16406,0.9925 -13.7461,1.5214 -6.16218,0.7553 -12.31237,1.7953 -18.49023,2.211 -7.2514,0.7718 -14.50431,1.5363 -21.75,2.4472 -7.76784,0.8105 -15.53245,1.6527 -23.30078,2.4454 -6.48964,0.5947 -12.9792,1.2474 -19.46875,1.7128 -5.15897,0.2128 -10.33201,0.4202 -15.38867,-0.068 -4.9541,-0.4594 -9.94081,-0.8041 -14.94922,-1.0274 -4.47138,-0.167 -8.92809,-0.4243 -13.36524,-0.7461 -3.65025,-0.3155 -7.27344,-0.7176 -10.91406,-1.0703 -4.38047,-0.3655 -8.77901,-0.657 -13.1875,-0.9004 -4.23113,-0.3367 -8.49897,-0.5112 -12.75391,-0.7402 -4.18886,-0.2672 -8.36057,-0.5707 -12.49414,-1.0527 -3.79279,-0.4374 -7.61877,-0.7816 -11.53711,-0.586 -4.28491,0.3046 -8.59961,0.6755 -12.85351,0.6114 -3.95631,-0.1995 -7.8793,-0.562 -11.71289,-1.1992 -3.15661,-0.2997 -6.36263,-0.4114 -9.4336,-1.002 -2.13887,-0.344 -4.25485,-0.7322 -6.41797,-1.0098 -2.83392,-0.1761 -5.591322,-0.6168 -8.304683,-1.164 -3.555715,-0.7186 -6.918072,-1.7961 -10.355469,-2.7539 -1.553779,-0.4067 -3.102449,-0.8318 -4.664062,-1.2227 -0.770854,-0.1928 -1.570971,-0.3247 -2.332032,-0.5371 -0.317971,-0.089 -0.616023,-0.2122 -0.923828,-0.3184 l -6.238281,5.293 c 2.657552,0.7222 5.381963,1.3151 8.058594,2.0039 3.46227,0.9303 6.837271,2.0075 10.375,2.7871 2.739946,0.5384 5.500583,1.0565 8.347656,1.2813 2.151935,0.2389 4.244375,0.6428 6.371095,0.957 3.11772,0.541 6.33111,0.7355 9.53125,0.9902 3.86945,0.5981 7.80259,0.9788 11.78125,1.1797 4.2657,0.1368 8.6036,-0.2551 12.9082,-0.5234 3.87493,-0.2074 7.67159,0.083 11.43555,0.4726 4.14878,0.4603 8.31479,0.8303 12.51562,1.0879 4.24936,0.2268 8.51347,0.3906 12.73633,0.7364 4.41587,0.2226 8.81222,0.5238 13.19531,0.8886 3.62339,0.3821 7.24418,0.7679 10.88282,1.0938 4.46639,0.3308 8.96365,0.5352 13.46289,0.7148 5.00281,0.1761 9.96242,0.5689 14.90625,1.0059 5.09401,0.5166 10.31454,0.3209 15.51758,0.1055 6.53449,-0.4708 13.06796,-1.1033 19.60156,-1.7696 7.77125,-0.8153 15.54137,-1.6256 23.3125,-2.4472 7.22354,-0.8998 14.45328,-1.6675 21.68359,-2.3887 6.17307,-0.4313 12.32177,-1.4183 18.48047,-2.1777 4.54806,-0.4851 9.09523,-1.0319 13.64453,-1.459 2.67523,-0.3704 5.35092,-0.4621 8.02539,-0.6875 0.94696,-0.08 4.7711,-0.5067 5.67188,-0.6055 7.41694,-0.8371 14.83721,-1.5219 22.25586,-2.3027 6.39791,-0.713 12.79709,-1.3777 19.19726,-2.0157 6.60503,-0.5274 13.17105,-1.5536 19.70899,-2.8359 6.36982,-1.301 12.69692,-2.8238 19.01758,-4.3516 5.95767,-1.4491 11.92252,-2.8603 17.84179,-4.457 4.36853,-1.0001 8.44781,-2.712 12.47071,-4.5215 4.16391,-1.889 8.49972,-3.4528 12.75195,-5.1738 3.45267,-1.4993 7.00455,-2.7856 10.57031,-4.0449 3.78104,-1.3597 7.40681,-2.9841 10.94531,-4.7754 3.77855,-2.0742 7.40856,-4.3335 11.125,-6.4863 4.15272,-2.4832 8.64015,-4.4953 12.86328,-6.8848 3.96356,-2.3112 7.84227,-4.7277 11.71289,-7.1484 4.2567,-2.7016 8.77211,-5.0863 13.12696,-7.668 3.52974,-2.1483 7.00033,-4.3747 10.29687,-6.7695 0.36851,-0.2857 0.74079,-0.5686 1.10547,-0.8575 2.90823,-2.3028 5.96975,-4.4891 8.66406,-6.957 1.34555,-1.2325 2.5382,-2.5735 3.76954,-3.877 2.63773,-2.7601 5.42335,-5.4273 8.14257,-8.1367 0.64014,-0.6799 1.85822,-1.7578 3.0586,-2.7968 1.75797,-1.1581 3.59914,-2.2305 5.38867,-3.3536 1.8997,-1.2489 3.82173,-2.4758 5.73047,-3.7148 2.28563,-1.4054 4.39063,-2.9913 6.55664,-4.5176 3.24812,-2.0395 5.87195,-4.4198 8.89062,-6.8144 1.86656,-1.4806 -7.4247,5.956 -5.59961,4.4414 8.66518,-7.1913 4.8357,-3.4462 7.75391,-6.336 1.46589,-1.3658 3.09646,-2.6334 4.41797,-4.0937 0.86672,-1.0128 1.98072,-1.8593 2.96094,-2.7949 1.12686,0.3424 2.25982,0.673 3.48828,0.7636 1.84921,-0.019 3.69471,-0.173 5.54101,-0.1386 1.70106,0.124 3.41233,-0.013 5.13477,-0.209 1.63763,-0.1168 3.26234,-0.3784 4.88281,-0.6953 1.5803,-0.3235 3.14894,-0.7033 4.7168,-1.084 1.48501,-0.3602 2.97108,-0.7179 4.45508,-1.0821 1.51324,-0.3674 3.02589,-0.7379 4.53906,-1.1054 1.37507,-0.3299 2.74975,-0.6607 4.12305,-0.9981 1.38145,-0.3383 2.76932,-0.6486 4.13672,-1.039 1.65241,-0.4786 3.19069,-1.1554 4.71093,-1.8965 1.55966,-0.6797 3.03252,-1.4982 4.48242,-2.336 1.78292,-1.16 3.55439,-2.3289 5.41993,-3.3945 1.75521,-0.8917 3.27544,-1.9941 4.74023,-3.166 0.57918,-0.364 1.18287,-0.7003 1.80078,-1.0195 1.29385,-0.6343 2.54174,-1.3345 3.69336,-2.1426 0.47875,-0.3232 0.94251,-0.6579 1.39844,-1.002 z m -76.54492,27.711 v 0 c -0.0189,0.019 -0.13305,0.1129 -0.36133,0.3008 -0.71085,0.5841 -1.43915,1.155 -2.16992,1.7227 -0.0454,0.03 -0.0625,0.051 -0.0977,0.068 -0.0605,0.038 -0.12236,0.077 -0.18359,0.1133 1.5369,-1.2155 2.89009,-2.2836 2.8125,-2.207 z m -44.92188,36.0097 c 0.003,0 -0.33834,0.2722 -1.18359,0.9493 -0.1372,0.105 -0.27784,0.2062 -0.41602,0.3105 0.86192,-0.6811 1.59345,-1.256 1.59961,-1.2598 z M 53.361328,1397.418 c -0.228246,0.2343 -0.224277,0.2456 0,0 z" />
    <path
       style="fill:#ffff00;stroke-width:0.20937188"
       d="m 54.574235,381.31964 c -3.970833,-0.32832 -10.50385,-1.21931 -13.795695,-1.88151 -3.637722,-0.73175 -10.10394,-2.81233 -12.23367,-3.93631 -4.843683,-2.55627 -6.309866,-3.40426 -9.040427,-5.22875 -2.852142,-1.90571 -3.040091,-2.07272 -3.105268,-2.75947 -0.03816,-0.40203 -0.155105,-0.78393 -0.259885,-0.8487 -0.10478,-0.0648 0.288134,-0.678 0.873143,-1.36274 0.585009,-0.68477 1.62227,-2.18718 2.305025,-3.33872 0.682755,-1.15155 1.361717,-2.25023 1.508804,-2.44153 0.245133,-0.31879 0.545937,-0.26162 3.6079,0.6858 5.355814,1.65717 8.270665,2.12466 17.577759,2.81911 8.213471,0.61286 15.474254,0.26062 30.568294,-1.48296 2.418247,-0.27935 7.230425,-0.79076 10.693731,-1.13649 6.910845,-0.6899 9.318085,-1.10667 17.079334,-2.95701 12.92581,-3.0816 15.82132,-3.94057 23.9042,-7.0912 6.2342,-2.43004 7.13405,-2.88915 13.43739,-6.85576 0.92124,-0.5797 2.94691,-1.74349 4.50149,-2.58619 1.55459,-0.8427 4.42822,-2.53217 6.38585,-3.75439 3.65535,-2.28216 7.31345,-4.19401 8.79362,-4.59584 0.46062,-0.12504 1.26792,-0.22785 1.794,-0.22852 0.94652,0 3.07331,0.51533 3.40018,0.82572 0.32759,0.31104 -2.50249,2.80217 -5.19418,4.57208 -3.15403,2.07391 -5.18929,3.72453 -7.53739,6.11298 -1.48477,1.51027 -2.24558,2.04293 -6.6999,4.69088 -8.57787,5.09923 -10.4603,6.09954 -14.03938,7.46056 -1.22264,0.46495 -3.3359,1.31032 -4.69614,1.87862 -2.38316,0.99571 -7.06129,2.29299 -12.54128,3.47779 -2.26345,0.48937 -9.28202,1.32731 -17.297476,2.06513 -1.957628,0.18018 -5.0668,0.51268 -6.909274,0.73887 -10.130737,1.24373 -20.923588,2.30283 -23.44965,2.30111 -2.195713,-0.003 -14.328785,-0.79732 -22.481793,-1.47466 -1.54046,-0.12797 -3.674153,-0.16719 -4.741537,-0.0872 -2.990594,0.22421 -10.209536,-0.67622 -14.214892,-1.77305 l -2.28568,-0.62592 -0.784833,0.6732 c -0.431658,0.37026 -0.792808,0.72829 -0.802555,0.79563 -0.03207,0.22162 4.889913,1.4232 7.116808,1.73739 1.200385,0.16936 2.51228,0.36264 2.915319,0.42947 0.403043,0.0668 3.465105,0.21148 6.804586,0.32144 3.339484,0.10994 7.956132,0.3374 10.259224,0.50544 2.30309,0.16803 5.553588,0.40526 7.223329,0.5272 10.132586,0.73991 9.857348,0.74422 19.680957,-0.30943 2.706132,-0.29027 6.239282,-0.66593 7.851447,-0.83481 1.612161,-0.16888 4.014705,-0.44241 5.338982,-0.60783 1.324276,-0.16541 3.491274,-0.40238 4.815554,-0.5266 8.418925,-0.78959 16.805654,-1.76662 19.052844,-2.21953 6.51042,-1.31218 10.60088,-2.51593 16.12163,-4.74427 5.64942,-2.28029 7.56933,-3.27449 16.07448,-8.32414 5.5277,-3.28189 6.6604,-4.10893 9.78295,-7.14293 1.55764,-1.51347 3.15019,-2.79567 4.92024,-3.96139 2.78431,-1.83375 4.12382,-2.85708 5.67153,-4.3329 l 0.96067,-0.91604 2.49397,-0.0611 c 2.05324,-0.0503 3.03046,-0.19764 5.52986,-0.83378 3.88736,-0.98938 4.28954,-1.1511 6.80459,-2.73632 2.87417,-1.81155 2.96638,-1.85457 3.11964,-1.45518 0.44963,1.1717 -0.54801,6.29885 -1.98282,10.19019 -0.34942,0.94768 -0.91261,2.93253 -1.25152,4.41079 -1.16039,5.06137 -2.30601,7.0495 -6.46006,11.21087 -2.73185,2.73664 -2.99938,2.94253 -6.61567,5.09164 -4.2102,2.50203 -4.7221,2.74727 -10.04985,4.81486 -6.1921,2.40303 -19.02365,6.42787 -26.17149,8.20915 -11.56802,2.88284 -23.4629,5.6638 -27.32303,6.38799 -3.163684,0.59352 -11.106012,1.52816 -16.226319,1.9095 -6.483554,0.48289 -27.319687,0.89569 -30.777666,0.60976 z"
       id="path4376"
       inkscape:connector-curvature="0" />
    <path
       id="path4378"
       transform="scale(0.26458333)"
       style="fill:#ffff00;stroke-width:0.79132682"
       d="m 682.48633,1212.1328 -6.72656,3.4102 c -3.69946,1.8755 -8.68437,4.5092 -11.07813,5.8535 -5.71876,3.2116 -17.40855,7.7429 -23.25976,9.0156 -3.35045,0.7287 -4.77288,1.4272 -5.04883,2.4824 -0.93461,3.574 -5.77568,12.4133 -8.77344,16.0196 -1.8023,2.1682 -3.27539,4.2526 -3.27539,4.6328 0,0.3806 4.18292,0.5327 9.29687,0.3398 7.29886,-0.2753 11.85027,-0.9925 21.16797,-3.334 13.13179,-3.3 13.66885,-3.5201 23.54297,-9.6992 6.66834,-4.173 6.9225,-4.4408 6.9043,-7.2305 -0.0104,-1.5932 -0.38527,-4.3196 -0.83399,-6.0605 -0.44871,-1.7409 -1.06268,-5.926 -1.36523,-9.2988 z" />
    <path
       id="path4380"
       transform="scale(0.26458333)"
       style="fill:#ffff00;stroke-width:0.79132682"
       d="m 645.29102,1191.6426 c -3.52763,1.8762 -7.04937,3.7668 -10.52149,5.7441 -0.19527,0.5617 -0.41826,1.1106 -0.68555,1.6289 1.63207,2.4554 1.47963,7.6949 -0.27343,16.4473 -1.47558,7.3671 -2.1518,9.2574 -3.85743,10.7793 -1.74978,1.5614 -1.82512,1.7843 -0.48632,1.4433 0.87046,-0.2217 3.186,-0.6356 5.14453,-0.9199 8.50413,-1.2346 18.40047,-3.9666 26.23047,-7.2383 8.22585,-3.4372 8.43893,-3.5895 8.96484,-6.4472 0.74644,-4.0559 3.15056,-9.3062 6.46875,-14.127 1.84248,-2.6769 2.6353,-4.5787 2.31055,-5.539 -0.0837,-0.2475 -0.36705,-0.7031 -0.72656,-1.2344 -1.44335,0 -2.88669,0 -4.33008,0.01 h -0.55274 c -5.95843,0.5758 -11.95585,0.5257 -17.93554,0.25 -0.34453,0.2194 -0.68883,0.4391 -1.03321,0.6583 -1.99009,1.2659 -2.44428,0.6678 -2.29101,-0.6485 -0.28566,0 -0.53789,-0.046 -0.72461,-0.209 -0.23157,-0.014 -0.46387,-0.024 -0.69531,-0.039 -1.01822,0.1608 -2.29439,0.7321 -2.82227,0.1113 -0.33188,0.1366 -0.60252,0.152 -0.73047,-0.1504 h -0.26367 c -1.18435,0 -1.3651,-0.037 -1.18945,-0.5156 z m -11.20704,7.373 c -0.21537,-0.324 -0.46834,-0.5913 -0.74609,-0.8203 -1.70381,0.9865 -3.39439,1.995 -5.06641,3.0352 -0.59894,0.3726 -1.32135,0.8388 -2.05273,1.3164 0.18518,0.2552 0.3549,0.4751 0.44336,0.5976 3.91136,0.2236 6.1295,-1.6226 7.42187,-4.1289 z m -7.42187,4.1289 c -0.0804,0 -0.15453,6e-4 -0.23633,-0.01 0.38409,0.2517 0.36835,0.1901 0.23633,0.01 z" />
    <path
       style="fill:#ffff00;stroke-width:0.79132682"
       d="m 614.03638,1250.774 c -4.9742,-1.4847 -8.62915,-1.5327 -15.43087,-0.2026 -2.31726,0.4531 -2.2889,0.3918 1.18699,-2.568 1.95854,-1.6678 5.7067,-5.0139 8.32926,-7.4358 4.62727,-4.2734 5.01094,-4.4553 12.97308,-6.1507 4.51264,-0.9609 8.36703,-1.5849 8.56531,-1.3866 0.8976,0.8976 -5.0548,14.3876 -7.97489,18.0736 -1.2884,1.6263 -1.06246,1.6361 -7.64888,-0.3299 z"
       id="path4382"
       inkscape:connector-curvature="0"
       transform="scale(0.26458333)" />
    <path
       style="fill:#e3dedb;stroke-width:0.26458332"
       id="path4432"
       d="m 178.5187,316.27879 c 0.25408,-0.69372 0.40502,-1.41579 0.50151,-2.14636 0.0344,-0.39849 -0.006,-0.78906 -0.25958,-1.10926 -0.28558,-0.23403 -0.49398,-0.52869 -0.82719,-0.70088 -0.29683,-0.21397 -0.64939,-0.31242 -0.98487,-0.44702 -0.39643,-0.0887 -0.79395,-0.12017 -1.18746,-0.22214 -0.41783,-0.0976 -0.84989,-0.11078 -1.27709,-0.12414 -0.4921,0.019 -0.97297,-0.0907 -1.45897,-0.15071 -0.24117,-0.0293 -0.48399,-0.0389 -0.72646,-0.0499 0,0 2.52313,-1.81191 2.52313,-1.81191 v 0 c 0.24778,0.0161 0.49586,0.0315 0.74175,0.0678 0.4799,0.0669 0.95806,0.13827 1.44444,0.12737 0.44227,0.0238 0.88686,0.0561 1.31646,0.17129 0.40446,0.0923 0.82716,0.10221 1.21593,0.25937 0.34456,0.14452 0.70172,0.26033 1.00552,0.48668 0.34038,0.22169 0.60147,0.52538 0.89461,0.80396 0.28602,0.39669 0.39116,0.84034 0.35515,1.32974 -0.0929,0.74415 -0.23522,1.47881 -0.46312,2.19467 0,0 -2.81376,1.32144 -2.81376,1.32144 z"
       inkscape:connector-curvature="0" />
    <path
       style="fill:#d4aa00;stroke-width:0.26458332"
       id="path4434"
       d="m 172.08577,311.31388 c -0.71194,-0.046 -1.41336,0.0146 -2.11786,0.10713 -0.15562,0.0742 -0.34335,0.0603 -0.49947,0.13327 -0.0688,0.0321 -0.12005,0.0932 -0.18391,0.13422 -0.20178,0.12962 -0.42744,0.22006 -0.63711,0.3361 -0.2821,0.0845 -0.52535,0.26721 -0.79984,0.36605 -0.48266,0.17378 0.0474,-0.0675 -0.39388,0.14494 0.54184,-0.3397 -1.10818,0.57119 -0.55896,0.25167 0.83057,-0.48318 3.31774,-1.93921 2.5044,-1.42753 -0.22188,0.1396 -6.8246,3.92271 -0.31568,0.19055 -0.29903,0.28478 -0.63997,0.52105 -0.97194,0.76581 -0.9435,0.76634 -2.09603,1.27273 -3.14821,1.836 -0.0643,0.0344 -0.14529,0.0167 -0.2159,0.035 -0.13131,0.0338 -0.25614,0.0893 -0.38597,0.12835 -0.21964,0.086 -0.5917,0.13811 -0.79466,0.2358 -0.12619,0.0607 -0.23013,0.16097 -0.35406,0.22622 4.46015,-2.63316 2.56226,-1.73204 1.80594,-0.75565 -0.23951,0.37499 -0.27869,0.82388 -0.31018,1.25682 -0.0274,0.41421 0.19442,0.71739 0.43857,1.02076 0.23577,0.21675 0.55533,0.33473 0.8625,0.4149 0.41364,0.18174 0.85417,0.24606 1.30002,0.28313 0.31658,0.022 0.63396,0.0254 0.95115,0.0283 0,0 -2.51883,1.82346 -2.51883,1.82346 v 0 c -0.32197,-0.008 -0.6442,-0.0175 -0.96471,-0.0515 -0.46059,-0.0568 -0.90606,-0.16309 -1.3404,-0.3292 -0.35569,-0.12493 -0.71272,-0.27913 -0.96504,-0.56983 -0.28676,-0.35957 -0.52561,-0.74925 -0.543,-1.22494 0.0237,-0.47546 0.0626,-0.95544 0.23669,-1.40362 0.72604,-1.25822 2.29621,-1.77731 3.47155,-2.44181 0.37157,-0.19963 0.78536,-0.2944 1.18697,-0.41775 0.13011,-0.0416 0.26286,-0.0748 0.39228,-0.11859 0.0643,-0.0217 0.24773,-0.10922 0.18943,-0.0745 -4.35224,2.59112 -3.09501,1.8257 -2.18186,1.26188 0.3052,-0.27734 0.66738,-0.48414 0.97684,-0.7492 0.93105,-0.56618 1.97079,-0.98364 2.79314,-1.6986 0.7268,-0.6319 -3.35452,1.89288 -2.50177,1.44529 0.96591,-0.507 1.89176,-1.08691 2.8415,-1.62359 0.17843,-0.10083 0.37842,-0.15989 0.56322,-0.24688 0.40208,-0.14888 0.78792,-0.34116 1.17287,-0.52898 0.44593,-0.22715 0.86976,-0.48062 1.38506,-0.50909 0.71433,-0.0787 1.42905,-0.0863 2.14735,-0.0825 0,0 -2.51624,1.82817 -2.51624,1.82817 z"
       inkscape:connector-curvature="0" />
    <path
       style="fill:#d4aa00;stroke-width:0.79132682"
       d="m 631.03883,1225.3159 c 1.73792,-2.6524 4.4799,-15.956 4.3468,-21.09 -0.0622,-2.3982 -0.0839,-4.934 -0.0482,-5.635 0.10245,-2.0148 8.62076,-6.1568 12.55046,-6.1026 1.83749,0.025 3.34088,0.3535 3.34088,0.7291 0,0.3756 1.51342,0.5237 3.36314,0.3291 1.84973,-0.1946 7.23249,-0.543 11.9617,-0.7743 8.30542,-0.4061 8.58446,-0.3666 8.18518,1.1603 -0.47279,1.8079 -0.2561,1.8964 1.86446,0.7615 0.84185,-0.4505 1.53064,-0.6252 1.53064,-0.3881 0,0.237 -1.64634,3.4759 -3.65852,7.1974 -2.01219,3.7215 -4.09561,8.2467 -4.62983,10.056 -0.53422,1.8093 -1.83438,3.934 -2.88926,4.7216 -2.9458,2.1993 -18.67434,7.4759 -27.64483,9.2742 -9.95116,1.9949 -9.74042,2.001 -8.27259,-0.2392 z"
       id="path4436"
       inkscape:connector-curvature="0"
       transform="scale(0.26458333)" />
    <path
       style="fill:#d4aa00;stroke-width:0.79132682"
       d="m 628.28027,1196.9844 c -1.52331,-0.418 -3.39282,-1.4937 -4.15447,-2.3903 -1.48938,-1.7533 -1.87306,-4.6202 -0.61833,-4.6202 0.42157,0 0.57657,-0.4949 0.34445,-1.0998 -0.27624,-0.7199 1.03084,-1.9072 3.78364,-3.4371 2.31312,-1.2854 6.32131,-3.6393 8.90709,-5.2308 5.01371,-3.0857 6.39257,-3.325 17.45574,-3.029 9.56447,0.256 17.2301,2.1289 20.24674,4.9469 2.23241,2.0854 2.46224,2.6998 2.07885,5.5582 -0.23707,1.7675 -0.6368,3.4194 -0.88829,3.6709 -0.57206,0.5721 -22.77142,1.6566 -23.70149,1.1579 -0.37485,-0.201 -2.15533,-0.4763 -3.95664,-0.6117 -2.63665,-0.1983 -4.32991,0.3614 -8.68606,2.8708 -5.70483,3.2863 -6.39186,3.427 -10.81123,2.2142 z"
       id="path4438"
       inkscape:connector-curvature="0"
       transform="scale(0.26458333)" />
    <path
       style="fill:#d4aa00;stroke-width:0.79132682"
       d="m 675.95854,1189.0378 c 0.19583,-5.532 0.17993,-5.5789 -2.6825,-7.9209 -2.34874,-1.9217 -4.02612,-2.4968 -9.10026,-3.1204 -3.42142,-0.4205 -7.55037,-1.0134 -9.17546,-1.3177 l -2.9547,-0.5531 4.40137,-3.0582 4.40136,-3.0581 8.25682,0.8709 c 15.0739,1.5899 19.49587,5.8536 16.87316,16.2693 -0.79728,3.1663 -1.20192,3.5634 -5.53846,5.4345 l -4.67834,2.0186 z"
       id="path4440"
       inkscape:connector-curvature="0"
       transform="scale(0.26458333)" />
  </g>
</svg>
