<?xml version="1.0" encoding="utf-8"?>
<!DOCTYPE svg PUBLIC "-//W3C//DTD SVG 1.1//EN" "http://www.w3.org/Graphics/SVG/1.1/DTD/svg11.dtd">
<svg version="1.1" id="Layer_1" xmlns="http://www.w3.org/2000/svg" xmlns:xlink="http://www.w3.org/1999/xlink" x="0px" y="0px"
	 viewBox="503.9484 -72.366 1552.1031 1571.1785" enable-background="new 503.9484 -72.366 1552.1031 1571.1785"
	 xml:space="preserve">
<path d="M2027.7732,864.8611c-37.9126,21.9333-83.2419,11.0979-121.963-2.713c-23.1124-8.2437-46.0399-17.6489-70.2087-22.4006
	c-25.6995-5.0915-51.6543-3.2692-77.0129,2.8117c10.0743-49.6114,77.3828-48.2205,114.5446-60.3862
	c39.9482-13.078,70.26-44.3061,85.1212-83.1425c-12.8009,29.5688-34.2054,53.9781-63.021,68.8393
	c-32.2319,16.6231-69.5645,13.2814-102.8575,26.322c-16.5529,6.8395-32.157,17.8991-40.597,34.1108
	c-2.8625,5.4985-3.1443,16.7805-8.6766,18.3975c-10.855,3.1727-21.5575,6.8448-32.1957,10.6752
	c-43.3135,15.5953-86.4314,31.755-129.637,47.647c7.3411-46.9156,26.7148-91.1935,52.5217-130.7493
	c24.1948-37.0848,73.6677-70.2949,72.8457-118.8627c-0.9041,40.6309-37.7192,68.0579-61.9774,96.1508
	c-27.2609,31.5703-48.2614,68.6972-62.2222,107.9382c-3.3793,9.4985-6.3342,19.1378-8.8226,28.9078
	c-1.0979,4.3104-2.1082,8.6418-3.1044,12.9766c-1.4794,7.5082-1.4597,8.1326-8.9105,10.8732
	c-22.4882,8.2719-45.0934,16.2888-67.4084,25.02c-40.4869,15.8412-80.4999,36.3978-107.2404,71.8525
	c-2.2551-19.8271-5.298-39.6088-8.9701-59.2225c-2.0436-10.3221-3.9019-20.6823-6.1707-30.9588
	c-1.34-6.069-2.7841-12.1166-4.1659-18.1764c-0.5753-2.5233-1.1508-5.0466-1.7261-7.5699
	c-0.9426-3.9445,1.9578-2.9763,5.1082-4.2248c36.1182-14.3143,66.9126-41.3619,85.863-75.4385
	c43.5908-78.0923,33.7096-167.6107,25.583-253.1381c28.2207,18.431,65.1589,9.8312,90.2274-9.7255
	c13.6707-10.665,24.9156-24.0861,34.8761-38.1915c5.2482-7.4321,9.9291-18.5038,17.3036-23.7706
	c6.2491-4.3931,12.5884-8.6805,19.1736-12.5576c14.192-8.3556,29.7899-15.0773,46.467-15.7163
	c19.276-0.7386,37.2042,7.5984,56.004,10.3454c31.073,4.5403,61.6372-5.0931,85.5704-24.9789
	c-27.6414,20.7178-61.7646,27.924-95.3346,19.0917c-20.2235-5.3209-39.3265-12.1381-60.4899-7.7134
	c-16.8453,3.5219-32.1907,12.0227-46.366,21.5066c19.0547-28.8623,41.5524-52.3764,72.2181-68.9313
	c32.1371-17.3492,68.0688-26.7143,103.7554-33.4636c63.6133-12.0309,128.2712-18.1276,186.1122-49.4732
	c-99.6517,51.5196-225.1,26.6386-318.2544,93.2267c-23.7495,16.9765-40.7195,39.777-56.8635,63.7239
	c-15.9839,23.7091-32.5227,48.7422-57.2988,64.1645c-20.8453,13.014-50.3774,17.5067-71.5096,2.41
	c-3.9824-2.845-6.9678-4.8917-7.3811-9.7969c-0.5852-6.9434-1.1171-13.8915-1.5591-20.8456
	c-1.0144-15.9618-1.5557-31.9589-1.2153-47.953c0.8591-40.3786,8.2872-80.2741,22.114-118.2305
	c26.443,13.1314,58.8007,1.6321,79.7898-16.5538c23.3657-20.2451,37.1313-48.5255,56.6135-72.0542
	c16.4567-19.8748,39.4058-38.418,66.5071-38.2159c26.3063,0.1962,53.7161,21.9925,79.6935,9.6805
	c-20.869,9.0223-42.9448-4.1504-62.9116-9.6817c-22.9995-6.3714-44.8541-0.5607-63.9325,13.0003
	c-41.0092,29.1494-57.728,88.2272-107.8544,105.0483c-11.0006,3.7047-23.3119,5.1341-34.5909,1.7823
	c-3.208-0.9317-6.2402-2.2508-9.1483-3.8839c2.7335-6.8364,5.6644-13.5938,8.7891-20.2606
	c11.6095-24.7708,25.9253-48.3026,42.6256-69.9719c15.6423-20.2966,33.6942-40.3051,54.0941-55.9435
	c16.9225-12.9725,36.9019-22.5542,58.5409-17.5049c-24.1027-6.3323-46.6677,5.6849-65.1919,20.3265
	c-22.2198,17.5626-42.0493,39.0279-59.0865,61.5806c-35.2224,46.6248-59.6724,101.2982-70.5887,158.7218
	c-21.9346,115.3831,26.4211,239.0142-17.4061,350.9806c-16.7379,42.7609-50.448,85.0784-96.4142,97.8404
	c-16.0015-60.6487-36.4009-119.9661-57.8436-178.8736c-5.267-14.4693-10.5905-28.9179-15.9229-43.3632
	c-2.6487-7.1754-5.2997-14.3499-7.9467-21.5259c-1.3185-3.5745-2.6361-7.1493-3.9519-10.7247
	c-1.5966-4.3384-0.571-6.6753,0.4934-10.9995c5.7528-26.0049,19.9471-51.3835,36.6595-71.8425
	c16.4303-20.1135,36.4713-34.9897,58.426-48.5764c24.7587-15.322,49.4426-30.8239,65.4968-55.8603
	c28.1155-43.8459,27.4097-102.5697-1.8929-145.4518c31.7512,52.3863,21.8616,125.5575-27.3517,164.0282
	c-26.8865,21.0175-59.7653,32.4952-86.2577,54.2303c-25.4659,20.893-45.746,47.9866-58.8212,78.2048
	c-7.0247-19.4344-13.8564-38.9356-20.5255-58.4948c-3.0785-9.0284-6.0072-18.1059-8.976-27.1709
	c-1.2871-3.9301-3.1642-7.2307-1.9995-11.2841c1.2375-4.3074,2.5133-8.6052,3.8408-12.8858
	c5.6232-18.132,12.5594-36.1385,23.0768-52.0459c10.2643-15.7216,24.5665-27.4275,39.8604-37.9957
	c16.0271-11.0749,32.5851-21.5304,45.8011-36.05c12.7454-14.1684,22.1232-31.334,27.634-49.5519
	c10.6989-35.3681,7.2839-73.8471-11.0753-106.0273c25.6646,48.5264,17.8375,112.0637-20.4449,151.9697
	c-20.4199,21.0123-48.2177,32.1703-70.088,51.3567c-22.5532,19.7854-35.5503,47.2944-45.1702,75.1921
	c-13.4305-43.7425-24.4554-88.2162-32.1877-133.3304c-3.9032-22.7728-6.9712-45.6909-9.058-68.7024
	c-0.5387-5.9406-1.0126-11.887-1.4193-17.838c-0.4573-6.6895,0.0178-7.6043,4.6011-12.1793
	c6.953-6.7034,14.5801-12.6756,22.5164-18.166c37.0219-25.612,80.7543-39.769,116.9459-66.7392
	c32.072-23.9001,53.0015-57.5464,58.3529-97.3057c-7.9564,45.3701-35.9874,79.6339-75.2679,102.5081
	c-42.1665,24.5548-90.6484,37.8791-128.3386,69.9111c-3.8472-96.8614,12.5623-192.4827,60.4822-277.469
	c-40.9568,61.8575-64.7314,130.9392-75.1085,204.2445c-26.7872-65.4214-92.9926-96.2492-155.6309-118.4362
	c-51.3372-18.184-102.972-35.5588-154.4639-53.3002c28.4315,10.655,56.8629,21.31,85.2944,31.965
	c44.1394,16.5417,90.0158,31.1586,131.382,54.067c39.6482,21.957,74.9535,54.3207,87.7102,99.1898
	c3.1138,10.9517,1.787,20.2393,0.9979,31.4693c-0.8167,11.623-1.3472,23.2658-1.6179,34.9142
	c-0.5759,24.7665,0.0156,49.5578,1.6227,74.2774c-66.4532-73.4567-174.4169-72.1767-265.0967-79.8405
	c-51.9191-4.388-102.5452-13.9902-149.1906-38.1473c-39.1099-20.2546-72.4218-48.1858-100.8254-81.6437
	c29.6609,37.446,65.5051,68.4936,108.0449,90.6103c52.4434,27.2657,109.8888,35.8019,167.9791,41.8717
	c-22.2599,15.0181-44.5198,30.0362-66.7797,45.0544c-22.7495,15.3485-49.6067,39.7089-78.5729,40.0211
	c-27.6981,0.5165-44.7473-31.9698-73.1405-27.0399c-27.7968,4.8264-38.7088,33.9536-46.3475,57.4274
	c6.0095-16.5424,12.5065-34.5412,26.8085-45.8191c19.7379-15.653,38.5751-7.7031,56.8119,5.5339
	c15.3123,11.1143,30.1567,18.0053,49.3463,13.8133c22.0756-4.8224,41.3045-19.1414,60.1147-30.9271
	c18.8127-11.7878,37.6252-23.5757,56.4379-35.3636c7.548-4.7296,15.0961-9.4591,22.6441-14.1887
	c2.7581-1.7282,5.5162-3.4565,8.2744-5.1847c3.4934-2.1889,7.1-0.9573,11.1232-0.5268
	c45.8985,4.9108,92.1492,11.8369,134.6111,30.8261c-75.5044,24.9877-107.2213,110.6932-178.9522,141.9441
	c-68.2184,29.7206-154.5032-8.8979-212.7925,48.6617c41.9131-39.4132,101.0733-31.6341,153.9775-33.3065
	c22.2958-0.7048,44.8723-3.4211,65.5535-12.2074c23.2803-9.7255,43.107-26.0877,61.0638-43.5004
	c21.7642-21.1048,41.4042-44.4272,65.1902-63.3785c10.3776-8.2682,21.4885-15.7422,33.5007-21.4322
	c5.7682-2.865,11.8845-5.0783,18.0555-6.8906c7.2407-2.1264,9.5355-2.543,16.0382,1.4118
	c23.7826,14.4639,44.1261,33.7106,57.8807,58.0945c3.2787,5.8124,2.8093,14.1459,3.6293,20.7441
	c0.9003,7.2453,1.8779,14.481,2.9297,21.7058c2.3275,15.9886,5.0178,31.9243,8.0443,47.7953
	c14.8346,77.7934,37.3478,153.9443,59.3816,229.9285c-38.0184-37.4217-88.4374-56.9119-139.2888-69.796
	c-54.7048-13.8604-111.6629-26.8712-168.0806-30.6547c-28.3438-1.9009-57.0049-0.7789-84.8296,5.2184
	c-11.2244,2.4193-24.7144-4.7842-34.2555-10.1686c-12.0071-6.7762-23.2072-15.0127-35.9107-20.5187
	c-22.8936-9.9227-44.1223-4.7493-65.535,6.2499c-20.5022,10.5316-42.9918,25.0783-67.0958,18.7744
	c31.4588,9.9001,59.4563-15.3189,88.0501-23.5655c38.8679-11.2097,62.8992,22.3367,96.3843,33.9319
	c-21.4924,6.4301-42.004,16.1644-60.055,29.5455c-27.1353,20.1154-48.2682,46.6584-71.2202,71.1334
	c-22.8547,24.3713-49.2014,48.5762-82.0699,58.0292c-27.907,8.026-57.7016,4.57-80.8318-13.4368
	c39.6783,32.6659,93.4466,18.6873,131.3138-9.5964c42.6276-31.8392,71.9139-78.9504,117.9453-106.5679
	c89.1346-51.7813,198.2089-21.2703,291.1951,2.5419c-63.6742,18.6079-93.2211,87.2881-153.8307,110.7052
	c-55.3089,21.3691-121.3531,4.8736-160.407-39.5163c31.3408,37.765,82.6731,57.9974,131.5175,51.4174
	c55.6377-5.4138,89.6791-48.045,129.8597-81.4542c20.2475-16.8354,44.735-31.8018,71.652-33.4745
	c13.1968-0.8201,26.3021,5.119,38.5411,9.6117c13.7593,5.0509,27.244,10.9114,40.1674,17.8378
	c43.3549,23.2366,77.8173,60.8985,90.6414,107.4908c10.5973,38.2813,20.3276,76.8197,28.4252,115.7119
	c-39.0938-12.4422-80.879-16.1319-121.5271-10.3777c-42.2196,5.9766-80.5946,24.212-120.9379,36.8652
	c-8.835,2.771-20.6888,7.8739-30.0414,7.5956c-6.4334,1.0232-14.3463-7.6904-17.1385-12.5738
	c-5.9874-10.4709-2.3446-21.5596,2.0021-31.871c8.8848-21.077,12.2332-42.8405,2.2267-64.3375
	c-7.5204-16.1563-21.2297-28.876-37.8036-35.362c25.0861,11.6875,41.2159,37.504,39.7043,65.2979
	c-1.4857,27.3156-32.2977,57.8684-3.2389,80.8307c-75.7339,7.9982-144.2013-37.9811-203.8033-78.575
	c18.2863,13.6747,36.676,27.2391,55.866,39.631c11.4096,7.3677,23.0712,14.3422,35.1073,20.6413
	c6.0172,3.149,12.1344,6.1146,18.3431,8.8673c5.8452,2.5916,13.3387,2.3968,10.5939,9.5859
	c-13.5529,26.2939-50.1998,2.3013-68.8636-2.415c-24.7238-6.2476-51.0164-2.9335-73.4313,9.1275
	c23.2773-10.4365,50.0269-12.2689,74.3479-4.199c15.0656,4.9988,28.8916,14.9571,45.1837,15.6268
	c12.7479,0.4607,28.0452-6.7284,30.845-20.2621c30.0558,10.6866,62.2712,15.1148,93.934,10.114
	c25.3868-4.0096,49.6932-11.9338,74.1293-19.7202c37.3834-11.9119,74.6644-20.5186,114.1759-18.1868
	c17.2314,1.0169,34.7368,3.5684,51.3566,8.324c7.0157,2.0074,13.9703,4.1094,20.8212,6.6286
	c2.7954,1.028,5.5692,2.0823,8.3215,3.2209c5.1471,2.1216,5.1226,2.2558,6.175,8.0016
	c-47.7087,6.9818-83.8634,33.2861-118.0186,65.579c-29.2396,27.6454-62.0515,56.0606-104.7954,53.8964
	c56.8601,7.3265,96.7833-38.6404,139.0251-68.4055c24.4137-17.2028,52.1976-27.9764,81.9501-31.0246
	c4.5895-0.4702,5.0521-1.8198,5.8037,3.0744c0.5393,3.5116,1.0785,7.0233,1.6177,10.5349
	c1.2007,7.1018,2.1143,14.2479,2.9734,21.3978c1.6945,14.1021,3.1514,28.1635,4.3213,42.3185
	c9.7769,118.2934-5.5227,238.9433-42.9636,351.483c-18.4464,55.4462-42.9509,107.4146-71.6184,158.2338
	c21.6686,0,43.3372,0,65.0056,0c14.7115,0,29.4231,0,44.1346,0c5.4229,0,17.7654,2.7552,20.1058-2.7791
	c41.3804-97.8485,66.2539-206.4869,70.9363-312.6377c1.4972-33.9437,2.17-67.818,0.6757-101.7788
	c-0.3892-8.8452-0.8987-17.6851-1.5295-26.5164c-0.6398-8.957,1.995-14.6689,6.3146-22.5159
	c7.1542-12.9967,16.9573-24.6665,27.9755-34.5544c23.9608-21.6753,53.8051-35.5463,83.3473-47.8416
	c32.9631-13.7191,66.1893-26.8311,99.2917-40.21c4.4985,32.5804,43.5918,28.7009,66.7402,24.6522
	c17.627-3.0829,32.6633-1.2957,48.7762,6.6235c15.9509,7.8009,31.2338,17.1661,46.709,25.8612
	c40.2101,22.5931,80.4202,45.1863,120.6302,67.7794c-32.8313-20.0428-65.6626-40.0858-98.4939-60.1285
	c-13.1959-8.0558-26.3918-16.1116-39.5878-24.1674c-13.3744-8.163-26.6761-17.3225-41.6006-22.4464
	c-13.7434-4.7184-27.3976-3.7739-41.5348-1.7426c-11.9417,1.7121-25.6903,4.0675-37.0844-1.2945
	c-6.2273-2.5644-20.0052-16.9753-9.6918-21.1436c15.0635-6.088,30.1268-12.1759,45.1902-18.264
	c29.2645-11.8276,58.3899-24.8597,88.7695-33.6088c28.2157-8.1259,56.7931-10.5496,85.6617-4.4917
	c-0.4105,22.1143,0.8461,46.8099,19.4844,61.7739c33.423,26.834,96.3,0.983,119.1292,43.4109
	c-14.4266-31.1741-54.6318-29.0569-82.9088-35.1075c-13.6885-2.929-30.332-9.0389-37.7063-22.0071
	c-8.4163-13.4427-7.7023-30.1471-6.5477-45.3619c56.618,14.7574,119.3535,48.3262,175.3667,13.4797
	C2028.9989,864.1512,2028.3861,864.5063,2027.7732,864.8611C2027.1671,865.2118,2028.9856,864.1591,2027.7732,864.8611z"/>
</svg>
