<?xml version="1.0" encoding="UTF-8" standalone="no"?>
<!DOCTYPE svg PUBLIC "-//W3C//DTD SVG 1.1//EN" "http://www.w3.org/Graphics/SVG/1.1/DTD/svg11.dtd">
<svg version="1.1" xmlns="http://www.w3.org/2000/svg" xmlns:xlink="http://www.w3.org/1999/xlink" preserveAspectRatio="xMidYMid meet" viewBox="0 0 640 640" width="640" height="640"><defs><path d="" id="b3dieOC4"></path><path d="" id="b22C6mOi2F"></path><path d="M336.84 254.43C354.9 227.77 366.19 211.12 370.7 204.45C381.73 188.18 401.16 179.74 420.58 182.8C425.89 183.63 439.17 185.72 460.42 189.07C451.79 203.74 446.4 212.92 444.24 216.58C432.23 237.03 410.8 250.12 387.13 251.5C380.42 251.89 363.66 252.87 336.84 254.43Z" id="c3IzxkfvOT"></path><path d="M412.62 294.64C401.09 295.57 393.89 296.14 391.01 296.38C374.55 297.7 357.48 291.65 344.09 281.08C333.77 272.94 325.63 262.13 321.61 249.94C320.22 245.72 316.74 235.17 311.18 218.3C325.13 221.48 333.85 223.47 337.34 224.26C362.13 229.91 383.51 245.5 396.47 267.38C398.62 271.02 404.01 280.1 412.62 294.64Z" id="e1xeMvBY41"></path><path d="M294.42 211.9C326.08 206.08 345.87 202.45 353.79 200.99C373.12 197.44 392.77 205.38 404.21 221.37C407.34 225.74 415.16 236.68 427.67 254.17C411.16 258.31 400.84 260.9 396.71 261.93C373.71 267.7 349.35 261.61 331.77 245.69C326.79 241.19 314.34 229.92 294.42 211.9Z" id="b6J3tTfEBo"></path><path d="M247.4 100.99C274.49 118.37 291.43 129.24 298.2 133.59C314.74 144.21 323.66 163.43 321.09 182.92C320.39 188.25 318.63 201.57 315.81 222.9C300.93 214.64 291.63 209.48 287.9 207.41C267.17 195.9 253.54 174.81 251.58 151.18C251.02 144.49 249.63 127.76 247.4 100.99Z" id="c2DbCNNhqJ"></path><path d="M185.13 198.28C216.28 190.16 235.75 185.09 243.54 183.06C262.56 178.1 282.74 184.58 295.32 199.69C298.76 203.82 307.36 214.15 321.12 230.68C304.96 236.02 294.85 239.35 290.81 240.69C268.29 248.12 243.55 243.83 224.85 229.25C219.56 225.12 206.32 214.8 185.13 198.28Z" id="b6saQwCNU"></path><path d="M404.1 336.2C376.39 324.23 359.07 316.75 352.15 313.76C335.22 306.45 324.05 290.02 323.47 271.6C323.31 266.56 322.91 253.96 322.28 233.8C337.31 239.18 346.7 242.54 350.46 243.89C371.39 251.38 387.2 268.83 392.61 290.4C394.14 296.5 397.97 311.77 404.1 336.2Z" id="m1epgxvLmv"></path><path d="M323.66 237.02C319.78 258.35 317.36 271.68 316.39 277.01C313.38 293.5 303.22 307.81 288.65 316.08C284.81 318.26 275.21 323.71 259.85 332.42C257.89 318.58 256.66 309.93 256.17 306.47C253.54 287.94 262.76 269.74 279.25 260.88C285.17 257.7 299.97 249.75 323.66 237.02Z" id="bnsMLFNvW"></path><path d="M318.94 227.61C313.71 195.84 310.44 175.99 309.13 168.05C305.93 148.65 314.23 129.16 330.43 118.01C334.86 114.97 345.94 107.35 363.66 95.16C367.49 111.74 369.89 122.11 370.85 126.26C376.19 149.36 369.65 173.61 353.42 190.89C348.82 195.79 337.33 208.03 318.94 227.61Z" id="b2huxVZV7F"></path><path d="M221.4 329.39C230.34 298.46 235.93 279.13 238.17 271.4C243.63 252.52 259.51 238.49 278.92 235.4C284.23 234.55 297.51 232.44 318.75 229.06C315.08 245.68 312.78 256.07 311.86 260.23C306.74 283.38 290.41 302.45 268.32 311.08C262.06 313.52 246.42 319.62 221.4 329.39Z" id="boEg9QzYj"></path><path d="M317.35 233.8C330.61 204.46 338.89 186.13 342.2 178.79C350.3 160.88 368.01 149.25 387.67 148.95C393.05 148.87 406.49 148.67 427.99 148.35C421.99 164.28 418.24 174.24 416.74 178.22C408.38 200.41 389.5 216.96 366.4 222.35C359.86 223.88 343.51 227.7 317.35 233.8Z" id="j3E1Zn9qKS"></path><path d="M320.28 229.06C321.59 229.06 322.65 230.12 322.65 231.43C322.65 261.54 322.65 349.48 322.65 379.58C322.65 380.89 321.59 381.96 320.28 381.96C319.8 381.96 320.75 381.96 320.28 381.96C318.97 381.96 317.9 380.89 317.9 379.58C317.9 349.48 317.9 261.54 317.9 231.43C317.9 230.12 318.97 229.06 320.28 229.06C320.75 229.06 319.8 229.06 320.28 229.06Z" id="byKuUh3f"></path><path d="M316.71 222.9L333.38 224.35L321.06 232.32" id="ckIncBYNi"></path><path d="M317.9 217.04C317.9 220.91 316.96 224.06 315.8 224.06C314.64 224.06 313.69 220.91 313.69 217.04C313.69 213.17 314.64 210.02 315.8 210.02C316.96 210.02 317.9 213.17 317.9 217.04Z" id="a3kxQOuuq0"></path><path d="M324.3 217.15C322.01 222.24 318.91 225.81 317.39 225.12C315.86 224.44 316.48 219.75 318.76 214.66C321.05 209.57 324.15 206 325.67 206.68C327.2 207.37 326.58 212.06 324.3 217.15Z" id="jv7rqoU0R"></path><path d="M331.8 219.19C330.16 225.49 327.3 230.21 325.41 229.72C323.52 229.23 323.31 223.71 324.95 217.41C326.59 211.11 329.45 206.39 331.34 206.88C333.23 207.38 333.44 212.89 331.8 219.19Z" id="a68spEXuG"></path><path d="M326.29 341.58L321.36 345.9L320.76 338.06L320.15 330.23L325.68 333.74L331.21 337.26L326.29 341.58Z" id="a4OMbX0Vkq"></path><path d="M319.83 359.48L322.65 363.09L317.02 363.09L311.39 363.09L314.2 359.48L317.02 355.88L319.83 359.48Z" id="e1Cgn59TN6"></path></defs><g><g><g><g><use xlink:href="#b3dieOC4" opacity="1" fill-opacity="0" stroke="#000000" stroke-width="1" stroke-opacity="1"></use></g></g><g><g><use xlink:href="#b22C6mOi2F" opacity="1" fill-opacity="0" stroke="#000000" stroke-width="1" stroke-opacity="1"></use></g></g><g><use xlink:href="#c3IzxkfvOT" opacity="1" fill="#ef0acf" fill-opacity="1"></use><g><use xlink:href="#c3IzxkfvOT" opacity="1" fill-opacity="0" stroke="#000000" stroke-width="1" stroke-opacity="1"></use></g></g><g><use xlink:href="#e1xeMvBY41" opacity="1" fill="#cf4c93" fill-opacity="1"></use><g><use xlink:href="#e1xeMvBY41" opacity="1" fill-opacity="0" stroke="#000000" stroke-width="1" stroke-opacity="1"></use></g></g><g><use xlink:href="#b6J3tTfEBo" opacity="1" fill="#ef0a7e" fill-opacity="1"></use><g><use xlink:href="#b6J3tTfEBo" opacity="1" fill-opacity="0" stroke="#000000" stroke-width="1" stroke-opacity="1"></use></g></g><g><use xlink:href="#c2DbCNNhqJ" opacity="1" fill="#d43d59" fill-opacity="1"></use><g><use xlink:href="#c2DbCNNhqJ" opacity="1" fill-opacity="0" stroke="#000000" stroke-width="1" stroke-opacity="1"></use></g></g><g><use xlink:href="#b6saQwCNU" opacity="1" fill="#a52047" fill-opacity="1"></use><g><use xlink:href="#b6saQwCNU" opacity="1" fill-opacity="0" stroke="#000000" stroke-width="1" stroke-opacity="1"></use></g></g><g><use xlink:href="#m1epgxvLmv" opacity="1" fill="#ef0a55" fill-opacity="1"></use><g><use xlink:href="#m1epgxvLmv" opacity="1" fill-opacity="0" stroke="#000000" stroke-width="1" stroke-opacity="1"></use></g></g><g><use xlink:href="#bnsMLFNvW" opacity="1" fill="#ef0a86" fill-opacity="1"></use><g><use xlink:href="#bnsMLFNvW" opacity="1" fill-opacity="0" stroke="#000000" stroke-width="1" stroke-opacity="1"></use></g></g><g><use xlink:href="#b2huxVZV7F" opacity="1" fill="#ef0aa6" fill-opacity="1"></use><g><use xlink:href="#b2huxVZV7F" opacity="1" fill-opacity="0" stroke="#000000" stroke-width="1" stroke-opacity="1"></use></g></g><g><use xlink:href="#boEg9QzYj" opacity="1" fill="#ef0a45" fill-opacity="1"></use><g><use xlink:href="#boEg9QzYj" opacity="1" fill-opacity="0" stroke="#000000" stroke-width="1" stroke-opacity="1"></use></g></g><g><use xlink:href="#j3E1Zn9qKS" opacity="1" fill="#ef0a76" fill-opacity="1"></use><g><use xlink:href="#j3E1Zn9qKS" opacity="1" fill-opacity="0" stroke="#000000" stroke-width="1" stroke-opacity="1"></use></g></g><g><use xlink:href="#byKuUh3f" opacity="1" fill="#0b0b0b" fill-opacity="1"></use></g><g><g><use xlink:href="#ckIncBYNi" opacity="1" fill-opacity="0" stroke="#000000" stroke-width="1" stroke-opacity="1"></use></g></g><g><use xlink:href="#a3kxQOuuq0" opacity="1" fill="#090909" fill-opacity="1"></use></g><g><use xlink:href="#jv7rqoU0R" opacity="1" fill="#090909" fill-opacity="1"></use></g><g><use xlink:href="#a68spEXuG" opacity="1" fill="#090909" fill-opacity="1"></use></g><g><use xlink:href="#a4OMbX0Vkq" opacity="1" fill="#410224" fill-opacity="1"></use></g><g><use xlink:href="#e1Cgn59TN6" opacity="1" fill="#410224" fill-opacity="1"></use></g></g></g></svg>