<?xml version="1.0" encoding="UTF-8" standalone="no"?>
<!DOCTYPE svg PUBLIC "-//W3C//DTD SVG 1.1//EN" "http://www.w3.org/Graphics/SVG/1.1/DTD/svg11.dtd">
<svg version="1.1" xmlns="http://www.w3.org/2000/svg" xmlns:xlink="http://www.w3.org/1999/xlink" preserveAspectRatio="xMidYMid meet" viewBox="0 0 640 640" width="640" height="640"><defs><path d="" id="b3dieOC4"></path><path d="" id="b22C6mOi2F"></path><path d="M335.32 254.43C353.37 227.77 364.66 211.12 369.17 204.45C380.2 188.18 399.64 179.74 419.06 182.8C424.37 183.63 437.65 185.72 458.89 189.07C450.27 203.74 444.87 212.92 442.72 216.58C430.7 237.03 409.27 250.12 385.6 251.5C378.9 251.89 362.14 252.87 335.32 254.43Z" id="c3QyVNB6dv"></path><path d="M412.62 294.64C401.09 295.57 393.89 296.14 391.01 296.38C374.55 297.7 357.48 291.65 344.09 281.08C333.77 272.94 325.63 262.13 321.61 249.94C320.22 245.72 316.74 235.17 311.18 218.3C325.13 221.48 333.85 223.47 337.34 224.26C362.13 229.91 383.51 245.5 396.47 267.38C398.62 271.02 404.01 280.1 412.62 294.64Z" id="f1CLXtS77q"></path><path d="M294.85 210.32C326.64 205.24 346.51 202.07 354.46 200.8C373.87 197.7 393.32 206.1 404.39 222.35C407.41 226.79 414.98 237.9 427.08 255.68C410.48 259.44 400.1 261.78 395.95 262.72C372.82 267.95 348.61 261.3 331.4 244.98C326.53 240.36 314.34 228.81 294.85 210.32Z" id="aiFILHDor"></path><path d="M247.69 100.99C274.78 118.37 291.71 129.24 298.49 133.59C315.03 144.21 323.95 163.43 321.38 182.92C320.68 188.25 318.92 201.57 316.1 222.9C301.22 214.64 291.91 209.48 288.19 207.41C267.46 195.9 253.83 174.81 251.86 151.18C251.31 144.49 249.92 127.76 247.69 100.99Z" id="cEglJq92K"></path><path d="M185.13 198.28C216.28 190.16 235.75 185.09 243.54 183.06C262.56 178.1 282.74 184.58 295.32 199.69C298.76 203.82 307.36 214.15 321.12 230.68C304.96 236.02 294.85 239.35 290.81 240.69C268.29 248.12 243.55 243.83 224.85 229.25C219.56 225.12 206.32 214.8 185.13 198.28Z" id="b2PKaZJrmJ"></path><path d="M404.1 336.2C376.39 324.23 359.07 316.75 352.15 313.76C335.22 306.45 324.05 290.02 323.47 271.6C323.31 266.56 322.91 253.96 322.28 233.8C337.31 239.18 346.7 242.54 350.46 243.89C371.39 251.38 387.2 268.83 392.61 290.4C394.14 296.5 397.97 311.77 404.1 336.2Z" id="bgoRdK8YQ"></path><path d="M323.66 237.02C319.78 258.35 317.36 271.68 316.39 277.01C313.38 293.5 303.22 307.81 288.65 316.08C284.81 318.26 275.21 323.71 259.85 332.42C257.89 318.58 256.66 309.93 256.17 306.47C253.54 287.94 262.76 269.74 279.25 260.88C285.17 257.7 299.97 249.75 323.66 237.02Z" id="b12VoJEoxZ"></path><path d="M318.94 227.61C313.71 195.84 310.44 175.99 309.13 168.05C305.93 148.65 314.23 129.16 330.43 118.01C334.86 114.97 345.94 107.35 363.66 95.16C367.49 111.74 369.89 122.11 370.85 126.26C376.19 149.36 369.65 173.61 353.42 190.89C348.82 195.79 337.33 208.03 318.94 227.61Z" id="abGGPaQ0k"></path><path d="M221.4 329.39C230.34 298.46 235.93 279.13 238.17 271.4C243.63 252.52 259.51 238.49 278.92 235.4C284.23 234.55 297.51 232.44 318.75 229.06C315.08 245.68 312.78 256.07 311.86 260.23C306.74 283.38 290.41 302.45 268.32 311.08C262.06 313.52 246.42 319.62 221.4 329.39Z" id="b321zUMjAO"></path><path d="M317.35 233.8C330.61 204.46 338.89 186.13 342.2 178.79C350.3 160.88 368.01 149.25 387.67 148.95C393.05 148.87 406.49 148.67 427.99 148.35C421.99 164.28 418.24 174.24 416.74 178.22C408.38 200.41 389.5 216.96 366.4 222.35C359.86 223.88 343.51 227.7 317.35 233.8Z" id="eecgMLp15"></path><path d="M320.28 229.06C321.59 229.06 322.65 230.12 322.65 231.43C322.65 261.54 322.65 349.48 322.65 379.58C322.65 380.89 321.59 381.96 320.28 381.96C319.8 381.96 320.75 381.96 320.28 381.96C318.97 381.96 317.9 380.89 317.9 379.58C317.9 349.48 317.9 261.54 317.9 231.43C317.9 230.12 318.97 229.06 320.28 229.06C320.75 229.06 319.8 229.06 320.28 229.06Z" id="byKuUh3f"></path><path d="M316.71 222.9L333.38 224.35L321.06 232.32" id="ckIncBYNi"></path><path d="M317.9 217.04C317.9 220.91 316.96 224.06 315.8 224.06C314.64 224.06 313.69 220.91 313.69 217.04C313.69 213.17 314.64 210.02 315.8 210.02C316.96 210.02 317.9 213.17 317.9 217.04Z" id="a3kxQOuuq0"></path><path d="M324.3 217.15C322.01 222.24 318.91 225.81 317.39 225.12C315.86 224.44 316.48 219.75 318.76 214.66C321.05 209.57 324.15 206 325.67 206.68C327.2 207.37 326.58 212.06 324.3 217.15Z" id="jv7rqoU0R"></path><path d="M331.8 219.19C330.16 225.49 327.3 230.21 325.41 229.72C323.52 229.23 323.31 223.71 324.95 217.41C326.59 211.11 329.45 206.39 331.34 206.88C333.23 207.38 333.44 212.89 331.8 219.19Z" id="a68spEXuG"></path></defs><g><g><g><g><use xlink:href="#b3dieOC4" opacity="1" fill-opacity="0" stroke="#000000" stroke-width="1" stroke-opacity="1"></use></g></g><g><g><use xlink:href="#b22C6mOi2F" opacity="1" fill-opacity="0" stroke="#000000" stroke-width="1" stroke-opacity="1"></use></g></g><g><use xlink:href="#c3QyVNB6dv" opacity="1" fill="#1aef0a" fill-opacity="1"></use><g><use xlink:href="#c3QyVNB6dv" opacity="1" fill-opacity="0" stroke="#000000" stroke-width="1" stroke-opacity="1"></use></g></g><g><use xlink:href="#f1CLXtS77q" opacity="1" fill="#2ea125" fill-opacity="1"></use><g><use xlink:href="#f1CLXtS77q" opacity="1" fill-opacity="0" stroke="#000000" stroke-width="1" stroke-opacity="1"></use></g></g><g><use xlink:href="#aiFILHDor" opacity="1" fill="#1aef0a" fill-opacity="1"></use><g><use xlink:href="#aiFILHDor" opacity="1" fill-opacity="0" stroke="#000000" stroke-width="1" stroke-opacity="1"></use></g></g><g><use xlink:href="#cEglJq92K" opacity="1" fill="#1aef0a" fill-opacity="1"></use><g><use xlink:href="#cEglJq92K" opacity="1" fill-opacity="0" stroke="#000000" stroke-width="1" stroke-opacity="1"></use></g></g><g><use xlink:href="#b2PKaZJrmJ" opacity="1" fill="#1f8917" fill-opacity="1"></use><g><use xlink:href="#b2PKaZJrmJ" opacity="1" fill-opacity="0" stroke="#000000" stroke-width="1" stroke-opacity="1"></use></g></g><g><use xlink:href="#bgoRdK8YQ" opacity="1" fill="#1aef0a" fill-opacity="1"></use><g><use xlink:href="#bgoRdK8YQ" opacity="1" fill-opacity="0" stroke="#000000" stroke-width="1" stroke-opacity="1"></use></g></g><g><use xlink:href="#b12VoJEoxZ" opacity="1" fill="#1aef0a" fill-opacity="1"></use><g><use xlink:href="#b12VoJEoxZ" opacity="1" fill-opacity="0" stroke="#000000" stroke-width="1" stroke-opacity="1"></use></g></g><g><use xlink:href="#abGGPaQ0k" opacity="1" fill="#1aef0a" fill-opacity="1"></use><g><use xlink:href="#abGGPaQ0k" opacity="1" fill-opacity="0" stroke="#000000" stroke-width="1" stroke-opacity="1"></use></g></g><g><use xlink:href="#b321zUMjAO" opacity="1" fill="#1aef0a" fill-opacity="1"></use><g><use xlink:href="#b321zUMjAO" opacity="1" fill-opacity="0" stroke="#000000" stroke-width="1" stroke-opacity="1"></use></g></g><g><use xlink:href="#eecgMLp15" opacity="1" fill="#1aef0a" fill-opacity="1"></use><g><use xlink:href="#eecgMLp15" opacity="1" fill-opacity="0" stroke="#000000" stroke-width="1" stroke-opacity="1"></use></g></g><g><use xlink:href="#byKuUh3f" opacity="1" fill="#0b0b0b" fill-opacity="1"></use></g><g><g><use xlink:href="#ckIncBYNi" opacity="1" fill-opacity="0" stroke="#000000" stroke-width="1" stroke-opacity="1"></use></g></g><g><use xlink:href="#a3kxQOuuq0" opacity="1" fill="#090909" fill-opacity="1"></use></g><g><use xlink:href="#jv7rqoU0R" opacity="1" fill="#090909" fill-opacity="1"></use></g><g><use xlink:href="#a68spEXuG" opacity="1" fill="#090909" fill-opacity="1"></use></g></g></g></svg>